/* XPM */
static char *e[] = {
/* columns rows colors chars-per-pixel */
"50 50 170 2 ",
"   c #638699",
".  c #5F8DA4",
"X  c #568CA8",
"o  c #628EA3",
"O  c #688EA3",
"+  c #6C95A5",
"@  c #6B99A6",
"#  c #6496AA",
"$  c #6B90AA",
"%  c #669DAD",
"&  c #6A9DAB",
"*  c #6A8EB0",
"=  c #6594B0",
"-  c #659CB5",
";  c #6B9CB3",
":  c #679DBF",
">  c #7194B2",
",  c #779CB6",
"<  c #729FBC",
"1  c #789FBE",
"2  c #6EA0B7",
"3  c #73A3B7",
"4  c #75A3BB",
"5  c #78A7B9",
"6  c #72ADBD",
"7  c #7FAFBB",
"8  c #00B5E8",
"9  c #05B9EC",
"0  c #00B7F6",
"q  c #00BFF4",
"w  c #33BEF7",
"e  c #54BCDF",
"r  c #6CA3C1",
"t  c #78A6C4",
"y  c #75ACC3",
"u  c #7DADC3",
"i  c #7CACCB",
"p  c #6AB0CA",
"a  c #7EB1C6",
"s  c #7EB3CC",
"d  c #7EBDD3",
"f  c #7FBAD8",
"g  c #69BCE6",
"h  c #06C1EC",
"j  c #14C7EF",
"k  c #18C3EF",
"l  c #1BC3F0",
"z  c #19C9FA",
"x  c #22C5EE",
"c  c #28C7EF",
"v  c #22C9E9",
"b  c #23C3F7",
"n  c #2CC9F3",
"m  c #25C3FA",
"M  c #2EC8FE",
"N  c #34C4F3",
"B  c #33C6FA",
"V  c #5BC1E9",
"C  c #57CDF5",
"Z  c #47D4F0",
"A  c #6ECBED",
"S  c #73DDEB",
"D  c #7FD2FE",
"F  c #7EE5F6",
"G  c #918B8B",
"H  c #9B9493",
"J  c #A19A9A",
"K  c #A7A29F",
"L  c #82A7BA",
"P  c #A7A1A1",
"I  c #ABA4A4",
"U  c #AEA9A6",
"Y  c #AFA9A9",
"T  c #B3ADAC",
"R  c #B6B1AE",
"E  c #B9B2AF",
"W  c #B8AFB0",
"Q  c #B7B1B1",
"!  c #BBB5B4",
"~  c #BEB9B6",
"^  c #BEB9B9",
"/  c #C1BBB7",
"(  c #C0B7B8",
")  c #C2BCBB",
"_  c #C6C1BE",
"`  c #82B5C6",
"'  c #84B3CC",
"]  c #82BBCE",
"[  c #9CBBCB",
"{  c #84AFD1",
"}  c #83B5D2",
"|  c #85BCD1",
" . c #8ABBD3",
".. c #82BCDC",
"X. c #8BBAD9",
"o. c #92BEDB",
"O. c #A4BBC1",
"+. c #86C2D5",
"@. c #89C2D6",
"#. c #81C3DB",
"$. c #8BC8DB",
"%. c #99C2D4",
"&. c #BBCDD6",
"*. c #85C3E3",
"=. c #8DC5E2",
"-. c #94C9E6",
";. c #8CD7EC",
":. c #99DCE4",
">. c #96D2EE",
",. c #83D6F6",
"<. c #8BD3FA",
"1. c #85D9FB",
"2. c #95D7F7",
"3. c #9AD7F3",
"4. c #94DBF6",
"5. c #9BDEF5",
"6. c #95D5F9",
"7. c #93DDFF",
"8. c #9AD8FC",
"9. c #A7D0E2",
"0. c #ABDDF6",
"q. c #A4DDF8",
"w. c #84E1F5",
"e. c #93E2F5",
"r. c #99E1F7",
"t. c #95E5FE",
"y. c #9CE5FB",
"u. c #93E8FF",
"i. c #A8E0F7",
"p. c #A4E8F5",
"a. c #A6E0F8",
"s. c #ABE5FC",
"d. c #A6EEFD",
"f. c #AAE9F8",
"g. c #B4E3F7",
"h. c #B4E6FC",
"j. c #BCE6FE",
"k. c #B4E9FB",
"l. c #C6C1C0",
"z. c #CAC4C3",
"x. c #CECAC6",
"c. c #CEC9C9",
"v. c #D0C8C6",
"b. c #D2CCCC",
"n. c #D5D0CE",
"m. c #D7D1D1",
"M. c #DAD5D4",
"N. c #DCD8D7",
"B. c #DED8D8",
"V. c #E1DDDC",
"C. c #CAEAF6",
"Z. c #C8E3F8",
"A. c #C4ECFB",
"S. c #CCECFA",
"D. c #D4EBF3",
"F. c #D5EDFC",
"G. c #DEEDFD",
"H. c #CCF0FF",
"J. c #DAF4F5",
"K. c #DEF1FF",
"L. c #F6EFF6",
"P. c #E5F5F6",
"I. c #ECF6F5",
"U. c #E1FAF5",
"Y. c #E7F1FA",
"T. c #ECF4FC",
"R. c #EBFAFB",
"E. c #F8F3F7",
"W. c #F6FFFE",
"Q. c #FEFEFF",
/* pixels */
"R U I E R ~ _ R R R U ~ / U R ! R ~ ~ ! ) ^ ^ ^ ^ ) ( W Y T W ( ~ E R ~ ~ ~ _ / ! ^ _ ^ R R ~ ! ^ / ",
"I R U ~ ~ / R ! ~ ! ~ _ _ R U R ~ R ! ~ l.) ^ ^ ! ! ( O.( W W W R / _ _ _ _ ~ _ _ l.l.^ ! ~ / ~ ! ! ",
"U ~ ! / R R U ~ / R ! ~ ~ R U U ! ~ ) ) z.l.! Q ^ ^ ! W T W W ^ _ z._ _ _ _ ~ z.l.! ! ! ! R ! ! Q Q ",
"E R ! ~ U R U ~ _ ! R ! / ~ R ~ ^ ) ) Y T ^ Q Q Y ! ! W T ! ) ) ~ / ~ R ~ _ ~ / ! ^ Q T R ! ~ Q ! ^ ",
"~ U R ! ~ _ R R ~ ~ R ~ / ! ~ ! ^ &.) Y T ) ^ ^ ! Q Q Q ! ^ ^ ^ R T E ~ ~ / ! E ) ! ~ _ / ! ! l.) ) ",
"~ ! ! ! z._ E ! ! ! U R R R R R ~ E ^ ^ l.z.! ^ l.Q P Y T W Q Q ! R / / ~ ~ / ! ! ) _ _ l.) ^ ! ^ ^ ",
"~ _ E R ~ R ~ R ! ~ R R R R ~ / ~ ! Q ^ ) ) ! ^ O.W P Y Q W W Q ~ _ ~ E R E ! / ~ ~ ! ^ l.^ ! ^ ^ ^ ",
"~ U U R R ~ _ R R ! / ~ ~ / ! _ ! / ^ l.l.l.) ) v.( ! ^ Q Q Q ^ ~ _ E R ~ ! / _ / / ! ! ) l.) l.Q Q ",
"U R U ~ R ~ E U E E / / / ~ ! ~ ^ ) ^ ! z.c.l.) ) l.l.( ) ^ Q z.l.z.z.) ! ^ ) _ ~ _ ! ~ ^ Q ! ) ^ ) ",
"U _ _ _ ~ R R R ~ _ x._ R R R / ! l.) ! Q ! l.n.v.l.) / ) l.z.n.b.m.m.l.! Q ! ~ ~ / ~ ~ ) ) ^ ) Q ^ ",
"~ ~ _ _ ) ~ ~ E R ! / / ~ R R R ! ( ) ^ ^ Q ! z.v.l.( / / ! ! ! l.z.z.) Q ! ~ / ^ ~ ~ ! ~ _ ^ ^ ) l.",
"U R _ ~ R E ) _ x._ _ / ~ ~ / _ l.O.! ! ^ ^ ^ ) ( ! ! ) / ! ) ! Q ^ ^ Q ! ~ _ ~ _ ~ _ ~ ! ^ ) / ^ ) ",
"U _ _ / K E R E _ ) / _ / ~ ~ ~ ( ( ( W Q ^ ) l._ / ^ ) / ! ) ! ^ ^ ^ ^ ~ / / ~ ~ ~ _ / Q E ) / ) l.",
"U ! R E E _ ~ R ~ R R ~ _ _ ~ R ( ( l.l.) ! ^ ^ / ! ! ) ) _ l.~ Q ( ) ( ~ _ / ~ R ~ ~ _ / T ) ) _ l.",
"_ _ E E E ~ E R _ _ ~ ~ ~ _ ) / ) ) l.l.) ) ) ^ l.^ l.) ) z.l.^ / ) ) ^ ! ~ ~ R ~ ! ~ _ ) / ) ) l.z.",
"~ ! ! ~ ~ ~ ~ ~ ~ / ~ R R ~ ~ R ( ! ( ) l.) l.l.l.) z.) / l.) / z.z.^ ! ! / / E E K K U ! / ! / / / ",
"O.Q ~ ~ ! _ x._ R _ ~ ~ ~ ! ~ ~ P I ( ( ^ ) ^ ) l.c.v.v.( ( ^ l.( l.( I W z.^ z.l.Y Y W E / ~ ~ ! _ ",
"~ ~ ! ~ _ / ! ! ~ T E ~ ~ / E ! ( ) z.( ) ! Y ^ l.) ( ( ) ^ W W ( O.( ( ) ( Q l.l.n.z.l._ E ~ / ! ^ ",
"! ~ R R / ! R / R U ~ R R ~ ~ Q ) l.l.l.z.) W ^ ) O.( T ! W ) ^ W Y ) ) ^ ! W ^ ! ^ l.^ ! ! ) _ ! ! ",
"~ R R ~ ~ R ~ / ~ ! ! _ &.%. .*.L Y.( ) ) ) ^ ) Q l.( ( ! ^ l.^ ) ) z.z.) ( ^ ! ! W ) ^ R _ / ~ ~ ~ ",
"/ Q W Q U T ~ ! ~ ~ ! ~ Q a 7 s ; T.l.z.^ Q W ) ( l.( ( l.z.c.^ ^ ) ) ^ ^ ^ Q Q ) B.b.z.) ) _ ) ~ ~ ",
") ^ T T T Q ! ! ! _ _ R [ u 5 i > L.z.) l.^ ^ l.l.( ( O.l.z.l.) ) ) ! ^ z.l.) ) ! l.m.B.n.! Q ! ~ / ",
"Q ) ^ ^ b.n.) ~ ! R R R &.[ [ ..i E._ ^ ) ) l.z.( ) ^ l.z.l.^ ^ l.) ^ l.z.) ^ ) z.Y ) l.^ T T ! / / ",
"T ! ! ) M.N._ E ~ ~ _ _ ) h.2.C e.W./ l.l.l.l.) ) ) ) ! l.) ^ ^ ^ ^ ^ l.l.^ ) ^ ) l.W Q Q ^ Q Q / ~ ",
"Q ^ ! Y ! ! Q ^ ^ z.b.M.) r.,.k 1.Q.l.) _ ) _ z.z.Q.W.I.I.Y.F.R.P.K.K.J.F.U.Z.T./ ~ ) / ! ) ) ) ~ / ",
"z.! ^ ^ Y Q ) ^ ^ b.n.b.) 0.<.m w.Q.Q.P.F.G.d.y.8.Q.T.C.F.H.a.G.S.j.g.A.i.T.A.W.~ ! ! T T Q Q ^ ! ! ",
"_ c._ Y Q ^ ^ ) ! l._ z.^ s.D x F F.9.` 2 : g V z v Z 8.0.h.e.k.g.f.p.g.4.S.k.I.l.) l.^ Q ! ) z.^ ~ ",
"! z._ R Q ^ ! Q ! / ! ) ) q.D A p 4 X o @   + + ' e w w n c n N B j B N M b h u.Q T ^ ) / ) z.m._ ~ ",
"E R ~ ~ Q ^ l.Q ^ ^ ! O.) s.<.$.'  .} } ] f d ' s | >.t.;.e.6.6.3.2.2.>.7.l 9 5.Q T Q ^ ) ) Q ^ ) ! ",
"~ _ _ ~ ^ ^ Q Q Q ^ ) ^ :.$.-.& =.1 +.} 5 =.- -.< +.u @., | u y | 4 =.& X.m q y.Q T T ! c.b.) ^ ) ) ",
"R ~ ~ E Q ! ) ) ^ ^ ^ ^ y $ X.O  .# u 6 % X.. o.o { t | * ' ; 3 s o #.. +.m 0 t.^ ! W ^ z.c./ Q Q ! ",
"~ ~ ~ ^ ! T ! l.b.) Q Q d ; *.# #.- s i r ..# +.- | y ..- d y t d 2 *.= | b 8 2.^ ^ ! Q ) ) Q Q Q l.",
"~ z.~ R l.l.Q ! ^ ^ ( ( D.C.S.C.A.S.S.S.C.C.C.S.C.S.S.S.Z.S.C.C.C.F.A.S.F.<.S F.c.l.) ^ O.z.( ) l.z.",
"/ ~ / / ) z.l.) ) W W ( / ! Q ! ~ ) ~ _ _ ! E R R ~ ~ ! ^ / Q Q ) ) ) ^ ( O./ b.z.b.n.l.) z.) ( ^ ^ ",
"~ R ~ ! ) z.) ) ^ ( ( ( ! R T Q ) ~ R ~ _ _ _ R ! Y U _ Q P W Y Q Q ^ ^ ^ ^ W ! ! ^ ) ) l.v.n.) ^ ^ ",
"~ ~ ~ U Q T Q ) O.) ) ( ! ~ ! E E ~ ~ ! _ ! ~ ! z._ R / ^ T ! I Q ^ ! ! W ^ ! Y P I T ^ ) ( z.) _ z.",
"R ~ b.x._ ! ! l._ R E ~ ~ ~ E ! ~ ~ ! R ~ ! ~ Y Q ! ! ^ Q ! W z.Q l.l.l.^ ) ^ Y J G H T ) z.) Q _ / ",
"_ _ ~ T ) / ) c._ ~ _ _ _ ~ / _ E ~ ~ ~ ~ ! ~ ^ Q Y ^ z.( O.z.z.Q z.l.^ Q ^ ) ) ) ( ( ) ( l.l.z._ ^ ",
"_ ~ R K _ l.) z.! E _ ~ ! E E ~ ~ ~ R ~ _ _ z._ ) ^ ^ ) W ( m.J P l.l.l.^ ^ ^ ^ v.) O.) l.n.n.b.! R ",
"~ ~ x.~ Q T ) l._ R E ! ~ ~ ! ~ ~ ) R ! ~ ! ~ ~ Q z.M.l.) ( v.( Q z.l.) ^ ^ ) ) ) ) ! l.N.V.B.z.z.) ",
"( ) ( ( ) W ! ^ _ ! / / / _ / l.~ ~ E ~ ~ ~ E z.z.z.m.z.) ^ ! ( l.) z.b.) / T J J z.l.l.M.b.l.! ^ ) ",
"z.W ) z.W I W ! ! / / ^ Q ~ ^ / / ! R _ R / ~ E ^ ) l.z.l.) ^ ( ) ( / ) ) / W J Y ) ) l.z.l.( ^ ! ^ ",
"v.l.( W ! W Y Y / _ / ! R R ~ ^ _ R ~ _ _ ~ ~ R l.l.( l.^ ! ^ ( ^ ) v.) ( E ( ) ) l.z.z.z.) l.( ) / ",
"l.z.( O.l.z.z.l./ _ ) ) ! ~ ~ ~ R ! / / x./ ~ / l.l.( l.) ^ ( l.^ ^ ! / _ _ ) l.z.v.v.z.z.) W ! ^ ~ ",
"z.l.Q z.z.l.c.) ^ ) ) l.~ R R R T ) ~ E W ) ) l.l.( ( ( ) ^ l.l.) _ / _ ( T Y ( z.z.v.l.z.z.W W E ~ ",
"W W P ^ l.l.l.! ) ) ) ) ! U R ! / ~ ! ~ W ) l.l.O.l.z.( ! W ) l.l./ ! ~ ( W T ( z.( l.) ) z.z.O.~ ~ ",
"! ) ! ! ^ ^ Q ^ l.^ z.) ^ T ! / l.! ) ) l.^ l.l.W ( v.l.) ( ( ) / / ~ ! W Y ( ) W W ! ( ( ( ( ( ! E ",
") W W ) W ^ Y ! l.! z.l.z./ ! / ! l.) ! l.c.z.) ) l.) ( ) z.! W R ~ z._ ( W ( ( O.l.l.) l.( ( l.z.v.",
"Q Q ! W ! ( ) ( ( ( T / ! z.) Q ^ l.) ^ ) z.l.^ ) ) ) ) ) ( ( ! T R U ^ l.z.z./ ^ z.z.c.l.z.z./ z._ ",
"^ ^ ^ ! O.) ) l.( ( ( / Q ) / ! ! l.) ^ ^ l./ &.) / l.z.z.z.l.) U Y T _ c.c.^ R ^ ) _ c.) ) / ~ ^ ! "
};
