/* XPM */
static char *fuel[] = {
/* columns rows colors chars-per-pixel */
"50 50 188 2 ",
"   c black",
".  c #1D1F1E",
"X  c #0F2220",
"o  c #1D212D",
"O  c #212528",
"+  c #292234",
"@  c #2A2E31",
"#  c #2D3134",
"$  c #273C35",
"%  c #323639",
"&  c #3D3F3E",
"*  c #3A3E41",
"=  c #4E3E48",
"-  c #474748",
";  c #545759",
":  c #656668",
">  c #676B6E",
",  c #6F6E74",
"<  c #757779",
"1  c #FF1407",
"2  c #FF1A02",
"3  c #EC2700",
"4  c #EF2B03",
"5  c #F22103",
"6  c #FE2302",
"7  c #F32F02",
"8  c #FB2D05",
"9  c #FD240D",
"0  c #F52A0B",
"q  c #FE2C0B",
"w  c #F5330C",
"e  c #FE320C",
"r  c #F3380F",
"t  c #EE2110",
"y  c #F52614",
"u  c #FF2213",
"i  c #F52B13",
"p  c #FE2C14",
"a  c #FF2318",
"s  c #FF2C1B",
"d  c #EE3A15",
"f  c #F63213",
"g  c #FD3213",
"h  c #F53B13",
"j  c #FB3B13",
"k  c #F3351C",
"l  c #FE341C",
"z  c #F53B1C",
"x  c #FE3B1C",
"c  c #FF2D28",
"v  c #FE3624",
"b  c #F63A27",
"n  c #FE3B23",
"m  c #FF352C",
"M  c #FF3B2B",
"N  c #FF3A30",
"B  c #F64115",
"V  c #F5441C",
"C  c #FF421C",
"Z  c #F64818",
"A  c #F54120",
"S  c #FE4124",
"D  c #FF422B",
"F  c #FA462D",
"G  c #FB542A",
"H  c #F24731",
"J  c #FF4031",
"K  c #FF503E",
"L  c #FC6B3C",
"P  c #FF4647",
"I  c #FF4845",
"U  c #FC5345",
"Y  c #FE564A",
"T  c #F25A48",
"R  c #FF5948",
"E  c #FF5F5A",
"W  c #F9664C",
"Q  c #F7684A",
"!  c #EC6352",
"~  c #F76651",
"^  c #FB6353",
"/  c #F56954",
"(  c #FA6952",
")  c #FA6E5B",
"_  c #EE7057",
"`  c #F37558",
"'  c #F47A5C",
"]  c #EF6C62",
"[  c #F96362",
"{  c #FC6A61",
"}  c #FF7365",
"|  c #FA7966",
" . c #F47469",
".. c #FF716A",
"X. c #F47D6B",
"o. c #FD796B",
"O. c #FB7873",
"+. c #FF787C",
"@. c #F28171",
"#. c #F7877B",
"$. c #F79979",
"%. c #7C8991",
"&. c #828485",
"*. c #898E87",
"=. c #918B8B",
"-. c #8A9489",
";. c #92938D",
":. c #9B9493",
">. c #969799",
",. c gray61",
"<. c #A49092",
"1. c #A29B9A",
"2. c #A7A29F",
"3. c #A6A2A2",
"4. c #AAA5A3",
"5. c #AEA9A6",
"6. c #AFA9A9",
"7. c #B3ADAC",
"8. c #B6B1AE",
"9. c #B9B2AF",
"0. c #B8AFB0",
"q. c #B7B1B1",
"w. c #BBB5B4",
"e. c #BEB9B6",
"r. c #BEB9B9",
"t. c #E98D82",
"y. c #F78382",
"u. c #FF8185",
"i. c #EF9F86",
"p. c #FC948B",
"a. c #FE9E90",
"s. c #E2A48F",
"d. c #F3A78F",
"f. c #EDA998",
"g. c #F5A392",
"h. c #FCA294",
"j. c #F2A995",
"k. c #F9A897",
"l. c #F4A59C",
"z. c #FEA09E",
"x. c #F4AA9C",
"c. c #EEB097",
"v. c #F3B49A",
"b. c #F89FA5",
"n. c #C1BBB7",
"m. c #C0B7B8",
"M. c #C2BCBB",
"N. c #F8A7A3",
"B. c #F7AFA0",
"V. c #FCAEA3",
"C. c #F3B1A2",
"Z. c #FBB2A4",
"A. c #C6C1BE",
"S. c #F0C1AF",
"D. c #F6CCB6",
"F. c #F2D6BB",
"G. c #C6C1C1",
"H. c #CAC4C3",
"J. c #CECAC6",
"K. c #C5C6C8",
"L. c #CEC9C9",
"P. c #D0C8C6",
"I. c #D2CDCC",
"U. c #D5D0CE",
"Y. c #C5C8D7",
"T. c #CDCED0",
"R. c #D7D1D1",
"E. c #DAD5D4",
"W. c #DCD8D7",
"Q. c #DDDBDA",
"!. c #E6C3C3",
"~. c #FFC1C3",
"^. c #FCCACD",
"/. c #E5D9C3",
"(. c #F8D9C6",
"). c #FBD3CD",
"_. c #E1DDDC",
"`. c #F7D4D0",
"'. c #FFD2DE",
"]. c #E7EFDA",
"[. c #FBE3D9",
"{. c #FFE9E2",
"}. c #FFEEED",
"|. c #F4F0E4",
" X c #FFF4E0",
".X c #FFF6E8",
"XX c #FAFDF2",
"oX c #FEFCFD",
/* pixels */
"8.5.4.9.8.e.A.7.8.8.5.e.n.5.8.w.8.w.e.w.M.w.r.r.r.M.r.6.6.7.r.w.w.w.8.e.e.n.A.e.w.r.A.r.7.8.e.e.r.n.",
"4.8.5.e.e.n.8.w.e.w.e.A.n.w.5.8.w.w.w.e.H.M.r.m.w.w.r.r.w.q.0.q.8.n.A.A.A.A.A.A.n.G.H.r.w.e.n.w.w.e.",
"5.e.w.n.8.8.5.n.n.8.w.e.n.w.5.5.w.w.M.r.K.G.w.q.r.w.w.q.7.7.q.r.A.H.A.A.A.A.e.A.G.r.w.w.w.q.w.w.q.q.",
"9.8.w.e.5.8.5.e.n.w.w.w.e.e.8.e.r.M.M.7.7.r.q.q.7.w.r.0.0.w.M.M.e.n.n.8.e.A.9.A.w.w.q.7.8.w.e.q.w.r.",
"e.5.8.w.e.A.8.8.e.w.8.e.A.9.w.9.r.M.r.6.q.r.w.r.q.r.q.q.q.r.r.r.8.5.e.w.e.n.e.9.M.w.w.A.A.w.w.G.M.M.",
"e.e.w.9.H.A.9.w.w.e.7.8.8.8.9.8.r.r.r.r.G.K.w.r.K.q.3.3.0.0.0.q.w.8.n.n.w.e.n.w.w.M.A.A.A.n.r.w.r.r.",
"e.A.9.9.e.9.,.- 4.Q.8.8.8.w.e.A.r.w.q.w.M.M.w.r.m.6.3.6.q.q.q.q.n.A.e.9.9.8.n.w.e.e.w.n.G.r.w.r.r.r.",
"e.5.5.9.8.e.&.. . & < A.e.e.9.A.w.M.r.K.G.H.r.G.K.M.w.r.q.q.0.r.e.A.9.8.e.w.n.M.n.r.w.w.M.G.M.G.q.q.",
"5.8.8.e.8.e.8.K.> @ O @ &.e.9.w.r.M.r.w.H.I.H.M.M.G.G.r.m.r.w.H.H.H.H.m.w.w.M.A.w.A.e.e.n.q.w.M.r.M.",
"7.e.A.A.e.8.7.7.e.T.> @ @ , 9.A.r.G.M.w.w.w.M.I.H.G.M.r.M.G.H.I.I.E.R.G.w.q.w.M.e.r.e.e.M.M.r.M.w.w.",
"n.n.A.A.n.e.e.8.w.e.e.: # # : w.w.M.M.r.w.0.w.H.I.H.m.M.e.w.r.w.M.K.H.M.w.w.n.n.A.w.r.w.r.A.w.r.M.G.",
"5.9.n.9.8.e.n.A.A.A.n.n.; # % ; r.r.w.w.r.r.m.M.r.0.w.M.M.w.M.w.0.r.r.w.w.e.n.n.A.e.n.e.e.n.r.M.r.M.",
"7.n.n.n.5.8.8.w.A.A.n.A.n.- $ $ = ].6.Y..Xk.l.g.g.d.d.g.a.h.Z.q.w.r.r.w.e.n.n.e.w.e.A.e.9.9.M.M.M.G.",
"8.w.7.w.8.A.e.8.e.8.8.e.A.A.* O , *.X <. .y u 6 q 2 8 6 p q i c.q.M.M.r.e.A.n.e.w.e.e.A.e.7.M.M.M.G.",
"n.n.w.w.8.e.w.7.A.A.n.e.n.n.K.< -.+ *. .g z M G U U U I M x f Y }.M.M.e.w.e.e.8.e.e.w.A.M.n.M.A.H.A.",
"e.w.w.e.e.e.e.e.e.n.e.8.w.e.n.>.o ;.} 9 n g _ oXoXXXXXoX#.s V s !.H.r.q.9.A.n.9.9.2.2.5.w.M.w.n.M.M.",
"e.8.e.e.w.A.J.A.9.A.9.e.e.w.r.$ %.o.9 x x h Y ~.~.D.D.^.) p N p Y G.r.4.w.G.w.K.M.7.6.0.w.n.w.w.r.M.",
"8.e.w.w.A.n.w.w.e.5.e.e.n.r.q.!.^ p C x l M l e f 8 l p p l V V b S.r.r.r.r.q.G.K.R.K.M.A.8.e.n.w.e.",
"w.e.7.8.n.w.7.n.8.5.e.w.8.w.n.p.q A x l l v n A x z n l l n r v 9 X.M.M.r.w.q.r.r.r.G.m.w.w.n.A.w.w.",
"r.7.w.e.e.w.e.M.e.e.w.A.8.4.w.! q F z x z x j l D m Z z v S n v 8 E H.H.r.M.r.w.w.q.M.m.8.A.n.e.m.w.",
"A.q.q.q.4.5.e.9.9.e.e.n.w.5.8.W s n z u n k n l w n x l B p b V g W M.r.r.M.w.0.M.W.I.P.m.M.n.A.n.e.",
"M.r.q.6.8.w.e.e.e.A.A.8.r.J.A.Q 0 x | +.u B M M C l m V p o.( g f / w.r.G.G.r.M.w.M.R.Q.R.w.8.e.e.n.",
"q.M.r.r.T.T.M.e.w.8.8.8.e.M.e.( j e P /.X.6 3 q u q q 5 O.(.U h s ! m.G.K.M.r.M.H.6.M.G.w.7.7.w.n.e.",
"7.w.w.M.E.W.A.8.e.e.A.A.n.e.M.^ p D e F F.b.p.p.i.p.$.z.^.H e m s Q m.G.G.m.M.r.M.H.0.0.w.w.q.w.M.n.",
"q.r.q.7.w.w.w.r.r.K.I.E.M.M.r.( g m n 7 ` `.u.i.$.$.#.'.` 8 x S g ~ A.A.A.H.G.H.M.e.n.M.w.M.M.M.w.n.",
"K.q.e.e.6.8.M.w.e.K.U.I.M.A.r.( 8 C x j o.a.5 9 u 0 2 j.} i A l g W M.H.M.M.r.M.e.w.w.q.7.0.w.w.w.w.",
"A.J.M.7.w.r.r.M.w.K.G.G.r.M.M.( l v m a  .V.p n v H 8 j.O.u n M g ~ A.H.M.w.w.r.M.n.M.r.q.w.M.P.n.e.",
"e.K.A.8.q.w.r.q.r.r.w.r.r.G.M.( j d M e ' x.q h h M 8 j.| 8 j x g ~ A.H.M.w.w.w.q.q.r.r.M.M.K.R.A.e.",
"q.8.e.e.q.r.G.w.r.r.r.M.M.M.w.( 9 Z x 9 o.C.p S n v q x.X.w J z g ~ e.e.w.q.w.w.q.7.q.r.m.M.w.r.M.w.",
"e.A.A.e.r.w.q.q.q.r.r.r.m.M.M.( l m x w ' k.1 w 0 n 2 k...0 M m p ~ e.q.0.w.r.w.q.7.7.r.P.I.M.w.M.n.",
"8.w.e.q.q.r.M.M.r.r.w.w.r.m.M.( q M Z 9 y.[.        v.|.      C g ~ r.q.w.r.w.M.r.w.q.w.H.L.r.q.q.w.",
"e.e.r.r.q.7.w.M.T.M.q.w.r.M.M.(   M 7 { ).    ( / ~ L ]   {     s ~ M.r.r.r.q.M.r.r.w.0.M.M.q.q.w.G.",
"A.A.A.8.G.G.0.w.r.r.r.w.w.M.r./   g { F.K     w k l e 6   (.[   p ^ n.r.m.M.r.K.I.G.M.r.M.M.r.M.H.H.",
"e.w.n.e.M.H.H.M.M.7.q.r.r.w.q.(   h Y T p S         n n   Q R     ! M.r.q.r.M.L.H.I.T.G.M.G.G.r.w.r.",
"n.w.9.w.M.K.M.M.m.0.r.r.9.9.7.W   z n l C h z n h     z   e g n   E r.r.r.M.q.w.w.G.M.M.G.K.I.M.r.M.",
"e.e.9.7.q.7.q.M.M.M.G.r.w.n.9.(   v x x z x j v z l   v   x w     ^ w.w.0.M.q.6.3.3.6.M.m.M.H.m.G.H.",
"8.n.I.J.H.9.w.G.n.8.9.e.n.e.9.!   M D n c     M m     N         e / G.G.r.M.r.7.3.=.:.6.M.K.M.0.A.n.",
"A.n.e.5.M.M.M.L.A.e.A.A.A.n.e.t.        c 0         4 9     i i t @.G.r.q.r.M.M.M.w.M.r.m.G.G.H.M.M.",
"A.n.8.2.A.K.r.H.e.w.n.e.9.8.9.{.C.x.Z.s.l.C.f.k.c.x.B.x.C.j.x.N.Z. XG.G.w.r.r.r.G.M.r.M.G.I.R.I.w.7.",
"n.e.J.n.q.7.n.G.A.9.9.e.e.e.e.e.r.n.q.e.w.w.e.e.q.H.E.G.M.w.L.r.q.L.G.M.m.M.M.M.M.M.w.H.Q._.W.L.H.M.",
"r.m.r.r.M.0.w.m.A.w.M.n.M.A.n.A.e.e.9.n.e.e.w.H.K.H.R.H.M.w.w.m.M.M.H.I.G.r.7.<.1.K.G.H.E.L.G.w.M.M.",
"H.w.m.M.0.3.0.w.m.n.n.w.8.e.e.n.n.e.8.A.8.n.w.9.r.m.H.G.G.G.m.m.M.r.r.M.M.M.q.1.6.m.m.G.H.G.G.w.w.w.",
"L.G.r.7.w.0.6.6.w.M.M.w.8.q.e.e.n.8.e.A.A.e.e.8.H.G.m.G.r.r.r.m.r.G.J.G.w.w.r.M.G.H.H.P.H.G.m.m.M.M.",
"G.K.M.M.H.H.K.G.M.H.M.M.w.e.e.e.8.w.M.n.J.n.e.n.G.G.r.G.m.r.m.G.r.w.q.e.G.A.G.H.H.H.H.K.K.m.0.r.n.w.",
"H.G.q.K.H.G.L.M.w.M.M.G.e.8.8.8.7.M.w.q.7.G.M.K.G.M.r.m.G.w.G.G.G.A.n.A.M.6.6.0.P.H.Y.G.H.H.0.0.w.n.",
"0.0.3.r.G.G.G.w.M.M.M.M.w.5.8.e.M.w.w.n.0.m.G.G.r.M.G.r.w.q.M.H.G.r.w.e.r.0.7.M.G.m.M.M.m.H.G.m.w.n.",
"0.G.w.w.r.r.q.r.G.M.G.M.r.7.9.n.H.w.M.m.H.M.H.M.7.m.H.G.M.m.M.M.e.A.e.w.0.7.w.M.0.0.w.m.m.M.M.m.w.q.",
"M.0.0.m.0.w.7.w.G.w.L.G.H.m.w.n.w.G.M.w.G.L.K.M.M.G.M.m.m.K.w.7.8.r.A.A.w.0.w.m.r.G.G.m.K.M.w.M.A.P.",
"0.0.w.0.w.r.M.M.w.q.q.M.r.K.M.q.r.G.M.r.M.G.G.r.G.r.M.M.M.r.r.w.6.8.5.e.G.H.H.n.r.G.K.I.A.G.H.n.H.A.",
"r.r.r.w.M.m.M.M.M.m.w.M.7.r.r.w.r.G.M.r.M.G.G.M.G.M.G.G.G.K.G.M.4.8.7.A.L.L.n.8.e.M.A.L.G.n.n.e.M.w."
};
