/* XPM */
static char *letsgo[] = {
/* columns rows colors chars-per-pixel */
"50 50 213 2 ",
"   c black",
".  c #0C0705",
"X  c #180B05",
"o  c #001210",
"O  c #201F1D",
"+  c #33201A",
"@  c #242726",
"#  c #322E2B",
"$  c #383937",
"%  c #721100",
"&  c #762F13",
"*  c #43332C",
"=  c #413C36",
"-  c #643023",
";  c #794201",
":  c #4F4134",
">  c #5F4338",
",  c #7B4227",
"<  c #734A38",
"1  c gray27",
"2  c #51524D",
"3  c #785C52",
"4  c #6E624C",
"5  c #6B6259",
"6  c #5A6D73",
"7  c #6C7375",
"8  c #797979",
"9  c #970D00",
"0  c #8E1200",
"q  c #981700",
"w  c #9C1C03",
"e  c #A41600",
"r  c #A51B03",
"t  c #8D2A00",
"y  c #972600",
"u  c #AF2104",
"i  c #A32D00",
"p  c #AA2B00",
"a  c #A9240A",
"s  c #B22400",
"d  c #B42F00",
"f  c #A53508",
"g  c #B23600",
"h  c #BA3506",
"j  c #A92815",
"k  c #B52E16",
"l  c #AA3916",
"z  c #BB3616",
"x  c #CD3E0D",
"c  c #C83D20",
"v  c #9B4100",
"b  c #9E491D",
"n  c #B64002",
"m  c #B55808",
"M  c #B64D15",
"N  c #AD5113",
"B  c #8C492B",
"V  c #97532D",
"C  c #8D4D31",
"Z  c #9D5738",
"A  c #AB482E",
"S  c #A8522B",
"D  c #B8552A",
"F  c #A65B37",
"G  c #B85A35",
"H  c #9C682C",
"J  c #BC662B",
"K  c #B5702F",
"L  c #B96937",
"P  c #B2733C",
"I  c #CA4801",
"U  c #D44C07",
"Y  c #CB540B",
"T  c #D8590C",
"R  c #CC471A",
"E  c #C6591C",
"W  c #D75716",
"Q  c #EC5A02",
"!  c #EF5A0A",
"~  c #EF5511",
"^  c #E15D1F",
"/  c #D96619",
"(  c #FF6503",
")  c #F8690B",
"_  c #FF7405",
"`  c #FF750C",
"'  c #EC6B1C",
"]  c #F56F1A",
"[  c #EC721D",
"{  c #FF7212",
"}  c #FF791A",
"|  c #D74823",
" . c #D44C25",
".. c #C65E27",
"X. c #C94A34",
"o. c #C15C39",
"O. c #DF5F3C",
"+. c #EA5422",
"@. c #D56829",
"#. c #C76635",
"$. c #C86D33",
"%. c #D26C34",
"&. c #C6723A",
"*. c #D67638",
"=. c #E36823",
"-. c #EA6D21",
";. c #F16E2B",
":. c #E8782C",
">. c #FA7627",
",. c #F37D2C",
"<. c #EA7C37",
"1. c #995940",
"2. c #AC6C45",
"3. c #B46E42",
"4. c #B76E4D",
"5. c #AE724E",
"6. c #B8784D",
"7. c #A87358",
"8. c #B67A58",
"9. c #8C7C7D",
"0. c #AC7A63",
"q. c #B27F6C",
"w. c #CB5A42",
"e. c #C37445",
"r. c #C47C4A",
"t. c #D87B45",
"y. c #CC775A",
"u. c #E27753",
"i. c #EE811A",
"p. c #E6832C",
"a. c #F1872A",
"s. c #FD822C",
"d. c #E38135",
"f. c #EC863E",
"g. c #FD8535",
"h. c #FF8935",
"j. c #FA8439",
"k. c #FD933F",
"l. c #A88469",
"z. c #B5856A",
"x. c #A48675",
"c. c #B78972",
"v. c #BA907A",
"b. c #D58040",
"n. c #C88357",
"m. c #D78F52",
"M. c #E78848",
"N. c #FA8B44",
"B. c #FD8B45",
"V. c #F9944C",
"C. c #E69259",
"Z. c #D18760",
"A. c #CB8F70",
"S. c #C39278",
"D. c #D99C78",
"F. c #E19773",
"G. c #7C9496",
"H. c #868584",
"J. c #948D89",
"K. c #9C9493",
"L. c #9D9D9D",
"P. c #B19684",
"I. c #AC9D96",
"U. c #A19A9A",
"Y. c #A7A29F",
"T. c #A7A1A1",
"R. c #ABA4A4",
"E. c #AEA9A6",
"W. c #AFA9A9",
"Q. c #B3AEAC",
"!. c #B6B1AE",
"~. c #B9B2AF",
"^. c #B7B1B1",
"/. c #BBB5B4",
"(. c #BEB9B6",
"). c #BEB9B9",
"_. c #CB9D83",
"`. c #D7A686",
"'. c #CFA79D",
"]. c #D8AE9C",
"[. c #E3AD95",
"{. c #D7B6A8",
"}. c #C0BAB7",
"|. c #C0B7B8",
" X c #C2BCBB",
".X c #E7BCA5",
"XX c #FFC688",
"oX c #FFCA91",
"OX c #DFC0AE",
"+X c #C6C1BE",
"@X c #F8C8A6",
"#X c #FFD2AD",
"$X c #EACDB3",
"%X c #FCD5B6",
"&X c #C6C1C1",
"*X c #CAC4C3",
"=X c #C3C8C4",
"-X c #CECAC6",
";X c #CEC9C9",
":X c #D7CBCA",
">X c #D2CCCC",
",X c #D5D0CE",
"<X c #CFDAD2",
"1X c #D7D1D1",
"2X c #DBD6D6",
"3X c #DCD8D7",
"4X c #F9D7C1",
"5X c #E4DDD3",
"6X c #FFE3C9",
"7X c #FFE5D3",
"8X c #FCE5DD",
"9X c #FFF0DD",
"0X c #FFEDE1",
/* pixels */
"!.    ^.!.(.+X!.!.            ^.                 X X).    Q././.            +X}.(.).&X).!.!.(.(.}.}.",
"R.    (.(.}.~.^.(.            !.                /./.).    /.^.^.            }.+X}.&X*X).^.}.+X^./.(.",
"E.    }.!.!.E.}.(.    (.(.^.E.!./.(. X    &X/.^.)././.^.Q.^.^.).    *X+X+X+X(.*X&X)././.^.^././.^.^.",
"^.    (.E.!.Q.(.+X    /.(.(.!.(.). X X    ).^./.Q./.).^.^./. X X    (.^.}.+X^.+X/./.^.Q.!./.(.^./.).",
"(.    /.(.+X!.!.(.    (.+X/./.^.|. X X     X/.).^././.^.^.).).).            /.(. X/.~.+X+X^./.&X X X",
"(.    !.+X+X/.^./.            !.).).).    *X/.).&X^.T.R.Q.^.^.^.            (.^./. X+X+X X+X)./.).).",
"(.    /.(././././.            +X)./.^.     X/.).|.W.T.W.^.^.^.^.}.+X}.^.    (.(.(.(./.+X&X)./.)./.).",
"/.    !.Q./.+X!.^.    /.(.(.~.+X/. X).    *X X X*X X/.).^.^.^.).}.+X^.!.    |.+X).}.^./.+X&X X&XQ./.",
"Q.    (.!.(.~.Q.(.    +X(.(./././.&X).    >X&X X X&X&X). X)./.&X&X;X*X|.     X+X/.+X(.(.(./.(. X). X",
"Q.    *X(.~.!.E./.    +X!.!.~.+X).&X X    /. X>X;X&X X). X&X*X>X      &X    ^.(.(. X(./. X X(.)././.",
"(.            !.^.            ^./. X X    /./.*X;X&X). X)./././.            }.+X}.(.(./.(.=X(.).&X&X",
"Q.            +X-X            +X).)./.    ).).&X)././. X|./. X).             X}.+X}. X(./.(. X(.). X",
"E.}.+X(.E.!.~./.+X+X}.+X+X(./.(.).)./././.).).&X+X}.(.+X|.(.}.^./.).).).(. X}././.(. X X~.!. X X&X X",
"!.^.!./.!.+X(.!.(.H.!.(.+X+X(.!./.).&X&X).).).).}./.^.). X+X*X(.^.). X|.}. X}.(.~.(.}.+X(.!. X X X&X",
"+X}././.!.(.~.Q.+X$ (.(.(.}.+X}. X X&X&X X X X).&X).&X&X X*X*X(.(.}. X(.(.(.(.~.(.(./. X}.}. X+X&X*X",
"(.!./.(./.(.(.(.(.O (.^.!.(.(.!.)./.). X X&X&X X&X+X*X X).&X X}.-X=X X!.(.}.}.~.!.Y.Y.Q./.}.(.}.}.}.",
"(././.(./.+X-X=X(.X /./.}.^.(.).T.W.). X|. X|.}.&X;X;X*X). X).&X/. X).R./.&X/.;X|.^.W.^./.}././.).).",
"^.(./.(.=X}.!./.Q.. ~.+X}.l.l._.'.OX4X7X}./.Q.).&X X X X X).^.^.).). X).).).^.&X&X1X;X|.+X!.}.}.(.).",
"/./.!.!.}./.!. XK.* /.P.c.z.6.6.#.%.#.t.C.n.8.S. X X/.Q./.^. X/.^.W. X X)./.^.)./.).&X)././. X+X^.(.",
").!.!.(.(.!.(.).J.3 /.7.5.n.e.*.j.g.' =.:.D e.%X^.8X).^. X/.&X). X X*X*X).|.).).^.^. X).!.+X(.(.|./.",
" X^.^.^.W.Q.(.^.5 > < q.e.b M B.' h.h.g.N.b.m.@X/.9X!.(. X*X*X X|. X X).).)./.^.&X2X>X=X X(. X+X(.(.",
" X).^.W.W././.(./._., Z.#.y p I h [ >./ ,.M.K V %X6X!.5X9.4 P.$X9X0X(.).*X&X). X^.$XD.@X<X/.!./.(.}.",
"^.&X/.).;X,X).(.^.x.& L @.;.>.>.T s.h.[ ,.k.p.N K XXoXH ; P m.K r.`.4X X*X&X). X`.n.F P ].!.Q.(.}.}.",
"W./.^.&X3X3X&X/.+ < C G n x U ! -.:.a.g.,.,.a.:.m v v m p.a.i.a.d.$.3.S.&X). X#XL M.C.&.Z.$X/.~.}.(.",
"/.).^.Q./././.^.# *XC L E U ! s g f g =.U -.=.,.p.j.j.s.} { _ ` } s.<.&.6.2.P L *.f.V.b.6.|.&X X(.}.",
"=X/.(.).W.^. XH.* ;X8.e... .U 9 i f p u d x W x ^ =.;.>.>.} { ` _ } s.j.M.t.$.E N.:.@.J D.^././.^.(.",
" X-X XQ./.).).2 5 =Xc.C b #.@.R 0 w 9 9 s e x e a k z R | +.+.~ ( ( ) >.j.f.<.<.Y / M.C.#X^. X&X}.(.",
"(.*X+X!.Q././.$ 5 ).^.c.B S G u.w.X.a x u e 9 r a a j k c c c +.! Q Q ] ;.=.=.:.N.$.J n.|. X;X1X=X|.",
"!.!.(.}.^.).&X@ J.).). X.X_.1.& w.X.O.c +.| u x a a q 0 q r u s d g I T Y g y y t v 2.`. X X^.). X(.",
"(.+X+X/.).).Q.# ^.).).). X X'.- A.y.y.% o.D #.G G G A A l l l f f N ..@.@.W E D b & + 3 ;X>X X/. X}.",
"!./.(./.!./.).H.).).).).).|. X9.. = : x.|.4X%X'.v.c.q.0.7.2.F V Z F G D ..%.#.S F q.x.:X*X;X).^.^./.",
"}.(.(.(.!.!./.+X>X X^./.|.|. X# 6 G.o <X X(.(./.).&X(.|.|.4XOX.X].{.[.D.F.D.4.& ].7X|.|. X X^.^.^.&X",
"}.+X}.~.&X*X^./.).).)./.). X}.@ 7 7 @ =X}.~.(.}.}.&X(.|.)././././.).).). X|.{.X I.&X X). X&X). X*X*X",
" X(.}.}.).*X*X).&XQ.^.).).^.^.L.o 1 8 +X}.(.~.~.!.(.)././.)./.Q. X X).).^. X X;X;X>X>X=X X X&X).).).",
"}.~././. X*X&X|.)./.).).^.~.!.^. X(.!.(.-X+X+XQ.^.Q.W. X/.T.^.W.Q./.).).).|./././.). X X&X;X>X X).).",
"(.(./.E.^.Q.^. X                !.(.}./.}./.(.(.&X&X              /.)./.^.).^.W.T.R.Q.).). X&X X*X&X",
"!. X>X-X+X/.(.                  (.(./.!.(.~.^.Q.^.                  &X&X).&X).W.T.J.K.W. X*X X^.+X}.",
"+X}.(.E.+X X        +X+X+X}.}.+X~.(.(.(.(.(.}.|.^.      ^. X*X        ).^./. X X X/.). X).&X&X&X+X}.",
"=X}.!.Y.+X+X      /.}.(.~.!.~.}.(.(.!.(.+X+X=X+X X     X^.).1XU.R.    &X).).).).&X&X X).=X1X1X>X/.!.",
"(.(.-X}.^.      +X~.~.(.(.(.(.(.}. X~././.(.(.}./.    &X X/.;X).^.    &X).). X X X)./.&X3X3X3X;X&X}.",
"/.|.(.). X      +X(.).}.}.+X}.=X/.(./.(.}.(./.+X*X    *X X/./.|.&X    >X&X|.Q.K.L.*X&X&X2X;X&X|. X X",
"*X/. X X^.    /.(.(.|.            /.!.+X~.(./.!.).    *X&X&X|.|. X     X X|.^.U.W.).|.&X*X&X&X^./.(.",
">X&X).^.(.    W.(.&X|.            !.(.*X+X(./.!.*X    &X)././.|.).    &X).^.|.&X&X&X*X;X&X X X X X X",
"&X*X).).*X      |.&X X    (.(.    ~.+X}.-X}.(.+X*X    *X|.). X&X).    ).&X&X&X*X&X;X;X*X;X X^.^.(.(.",
"*X X^.;X;X      /.&X).&X(.^.~.     X(.^.Q.&X).*X&X     X X/.&X&X      &X).W.W.^.;X&X;X&X&X&XQ.^.~.}.",
"/.^.T./.&X X       X X&X(.E.!.    (.^.}.^.).&X&X).    ).).^. X*X      ).).^.^.|.&X).&X&X&X;X&X|.(.|.",
"^.&X/./.).).        *X}.|.Q.^.    ^. X).*X).*X&X^.      ).). X X    (.^.^.^.^.|.^.^.|.^.). X|.)./.~.",
" XQ./.).^./.Q.        &X*X        +X X/.*X;X*X X X        ;X/.      *X+X^.^.).|.).&X&X X&X).|. X+X-X",
"^.^./././.|. X X                  &X X/. X&X&X).&X X                E.).*X*X*X|.).&X*X;X&X=X+X X*X+X",
"/.).)./.|.|. X X X            ).).&X&X). X&X&X X X X&X            Q.Q.+X;X;X}.!.(. X&X;X&X}.|.(.|.|."
};
