/* XPM */
static char *plano[] = {
/* columns rows colors chars-per-pixel */
"50 50 207 2 ",
"   c #0C0705",
".  c #180B05",
"X  c #001210",
"o  c #201F1D",
"O  c #33201A",
"+  c #242726",
"@  c #322E2B",
"#  c #383937",
"$  c #721100",
"%  c #762F13",
"&  c #43332C",
"*  c #643023",
"=  c #794201",
"-  c #5F4338",
";  c #7B4227",
":  c #734A38",
">  c gray27",
",  c #51524D",
"<  c #6E5F5C",
"1  c #785C52",
"2  c #6E624C",
"3  c #6B6259",
"4  c #5A6D73",
"5  c #6C7375",
"6  c #797979",
"7  c #970D00",
"8  c #8E1200",
"9  c #981700",
"0  c #9C1C03",
"q  c #A41600",
"w  c #A51B03",
"e  c #8D2A00",
"r  c #972600",
"t  c #AF2104",
"y  c #A32D00",
"u  c #AA2B00",
"i  c #A9240A",
"p  c #B22400",
"a  c #B42F00",
"s  c #A53508",
"d  c #B23600",
"f  c #BC3200",
"g  c #BA3506",
"h  c #A92815",
"j  c #B52E16",
"k  c #AA3916",
"l  c #BB3616",
"z  c #CD3E0D",
"x  c #C83D20",
"c  c #9B4100",
"v  c #9E491D",
"b  c #B55808",
"n  c #B64D15",
"m  c #AD5113",
"M  c #8C492B",
"N  c #97532D",
"B  c #8D4D31",
"V  c #9D5738",
"C  c #AB482E",
"Z  c #A8522B",
"A  c #B8552A",
"S  c #A65B37",
"D  c #B85A35",
"F  c #9C682C",
"G  c #AA6529",
"H  c #BC662B",
"J  c #B5702F",
"K  c #B96937",
"L  c #B2733C",
"P  c #CA4801",
"I  c #D44C07",
"U  c #CB540B",
"Y  c #D8590C",
"T  c #CC471A",
"R  c #C6591C",
"E  c #D75716",
"W  c #EC5A02",
"Q  c #EF5A0A",
"!  c #EF5511",
"~  c #E15D1F",
"^  c #D96619",
"/  c #FF6503",
"(  c #F8690B",
")  c #FF7405",
"_  c #FF750C",
"`  c #EC6B1C",
"'  c #F56F1A",
"]  c #EC721D",
"[  c #FF7212",
"{  c #FF791A",
"}  c #D74823",
"|  c #C65E27",
" . c #C94A34",
".. c #C15C39",
"X. c #EA5422",
"o. c #D56829",
"O. c #C76635",
"+. c #C86D33",
"@. c #C6723A",
"#. c #D67638",
"$. c #E36823",
"%. c #EA6D21",
"&. c #F16E2B",
"*. c #E8782C",
"=. c #FA7627",
"-. c #F37D2C",
";. c #EA7C37",
":. c #995940",
">. c #AC6C45",
",. c #B46E42",
"<. c #AE724E",
"1. c #B8784D",
"2. c #A87358",
"3. c #B67A58",
"4. c #8C7C7D",
"5. c #AC7A63",
"6. c #B27F6C",
"7. c #CB5A42",
"8. c #C37445",
"9. c #C47C4A",
"0. c #D87B45",
"q. c #CC775A",
"w. c #E27753",
"e. c #EE811A",
"r. c #E6832C",
"t. c #F1872A",
"y. c #FD822C",
"u. c #E38135",
"i. c #EC863E",
"p. c #FD8535",
"a. c #FF8935",
"s. c #FA8439",
"d. c #FD933F",
"f. c #878577",
"g. c #A88469",
"h. c #B5856A",
"j. c #A48675",
"k. c #B78972",
"l. c #BA907A",
"z. c #D58040",
"x. c #C88357",
"c. c #D78F52",
"v. c #E78848",
"b. c #FA8B44",
"n. c #FD8B45",
"m. c #F9944C",
"M. c #E69259",
"N. c #D18760",
"B. c #CB8F70",
"V. c #C39278",
"C. c #D99C78",
"Z. c #E19773",
"A. c #868584",
"S. c #948D89",
"D. c #9C9493",
"F. c #9D9D9D",
"G. c #B19684",
"H. c #AC9D96",
"J. c #A7A29F",
"K. c #A7A1A1",
"L. c #ABA4A4",
"P. c #AEA9A6",
"I. c #AFA9A9",
"U. c #B3ADAC",
"Y. c #B6B1AE",
"T. c #B9B2AF",
"R. c #B8AFB0",
"E. c #B7B1B1",
"W. c #BBB5B4",
"Q. c #BEB9B6",
"!. c #BEB9B9",
"~. c #CB9D83",
"^. c #D7A686",
"/. c #CFA79D",
"(. c #D8AE9C",
"). c #E3AD95",
"_. c #D7B6A8",
"`. c #C0BAB7",
"'. c #C0B7B8",
"]. c #C2BCBB",
"[. c #E7BCA5",
"{. c #FFC688",
"}. c #FFCA91",
"|. c #DFC0AE",
" X c #C6C1BE",
".X c #F8C8A6",
"XX c #FFD2AD",
"oX c #EACDB3",
"OX c #FCD5B6",
"+X c #C6C1C1",
"@X c #CAC4C3",
"#X c #C3C8C4",
"$X c #CECAC6",
"%X c #CEC9C9",
"&X c #D7CBCA",
"*X c #D1CCCC",
"=X c #D5D0CE",
"-X c #CFDAD2",
";X c #D7D1D1",
":X c #DAD5D5",
">X c #DCD8D7",
",X c #F9D7C1",
"<X c #E4DDD3",
"1X c #FFE3C9",
"2X c #FCE5DD",
"3X c #FFF0DD",
"4X c #FFEDE1",
/* pixels */
"Y.P.L.T.Y.Q. XY.Y.Y.P.W.Q.U.Y.Y.Y.Q.Q.Q.+XW.W.!.!.].'.I.I.I.!.!.W.Q.Y.Q.`.`. X`.Q.`.+X!.Y.Y.Q.Q.Q.!.",
"L.Y.P.Q.Q.`.Y.W.Q.Q.Q.#X`.Y.P.U.Q.Y.W.Q.+X].'.!.E.!.!.!.!.E.E.E.T.`.`. X X X`. X`.+X@X!.W.Q.`.Q.W.W.",
"P.Q.W.`.Y.Y.L. X`.Y.Q.Q.Q.Y.P.Y.W.Q.].Q.@X+XW.E.!.'.!.E.U.U.E.'.`.#X X X X XQ. X+X!.W.W.W.E.W.W.E.E.",
"T.Y.W.Q.L.Y.P.Q.`.Q.Y.Y.`.Q.Y.Q.!.Q.].U.U.'.E.E.U.E.W.E.E.!.!.!.Q. XQ.Y.Q. XW. XW.W.W.U.U.W.Q.E.W.!.",
"Q.P.Y.Q.Q. XT.T.Q.Q.Y.Q.`.Q.W.Q.].].!.U.U.].!.!.E.!.E.E.E.!.!.!.Y.U.T.Q.Q.`.Q.T.!.W.Q.`. XW.!.].].].",
"Q.Q.T.T. X XY.Q.Y.Q.U.Y.Y.Y.Y.Y.!.Q.!.!.+X#XW.!.+XE.K.L.U.E.E.E.W.Y.Q.`.Q.Q.Q.W.W.]. X X X].!.W.!.!.",
"Q.].T.T.Q.Y.Q.Y.Y.Q.Y.Y.Y.Y.Q.`.!.!.E.W.].].W.!.!.I.K.I.E.E.E.E.`. XQ.T.Y.Y.Q.Q.Q.Q.W.!.+X!.W.!.!.!.",
"T.Y.L.Y.Y.Q. XY.Q.Y.`.Q.Q.`.Q.`.W.!.!.#X+X+X].].@X].'.!.E.E.E.!.Q. XT.Y.Q.W.`.].!.`.W.W.].@X].+XU.E.",
"P.Y.Y.Q.Y.Q.Y.P.Q.W.Q.`.`.Q.T.Q.W.+X!.W.@X*X+X].].+X+X!.!.'.W.+X@X@X@X!.W.!.]. XQ. XQ.Q.Q.E.!.].!.].",
"Y.Q. X XQ.Y.Y.U.W. X$X XY.U.Y. XW.+X+XE.R.W.].*X%X+X!.!.+X+X+X;X*X;X;X@XE.E.Q.Q.Q.Q.Q.Q.].].!.].!.W.",
"Q.Q. X].`.Q.Q.T.Y.Q.`.Q.Q.W.T.T.W.!.].].!.R.!.@X%X+X!.!.!.W.W.W.].@X@X!.W.Q.Q.`.Q.Q.Q.T.Q. XQ.Q.].+X",
"U.T.Q.Q.Y.T. X X X X X`.W.Q.`. X].!.E.W.!.!.!.].'.E.W.+X!.W.].!.W.!.!.W.E.Q. XQ. XQ.].Q.Q.].Q.].!.].",
"P.]. XQ.P.Y.Y.T. X X X X`.Q.W.Q.'.!.!.W.W.!.!.+X XQ.!. X!.Q.`.W.W.!.!.Q.Q.].Q.Q.Q.Q.].].T.T. XQ.+X].",
"Y.W.Y.T.Y. XQ.Y.`.A.Y.Q. X#XW.Y.E.!.+X+X!.!.!.!.`.W.W.!.].+X+XQ.E.Q.].!.Q.].].Q.Y.Q.]. XW.Y.Q. X X+X",
"].].W.W.Y.Q.T.U. X# `.Q.Q.`. X X].].+X+X].].].!. X!.].+X].@X+X!.Q. X].Q.Q.Q.Q.Y.`.W.Q.]. XW.]. X X X",
"Q.Y.W.Q.Q.Q.Q.Q.`.o `.Y.Y.Q.W.Y.'.E.!.+X].+X+X].+X+X@X].!.+X].].$X XQ.W.W.`.`.W.Y.J.J.P.W.`.W.].].].",
"Q.E.Q.Q.Y.#X$X].W.. Q.`.Q.W.!.!.K.U.!.].`.].!. X X%X%X@X!.!.!.+XW.+X!.L.W.+XW.@X+XU.I.E.T.].W.W.!.`.",
"E.Q.E.Q. X].Q.Q.U.  T.`.Q.g.g.~./._.,X2X!.W.I.!.+X].].!.+X!.W.R.!.!.'.!.!.!.E.+X+X;X@X]. XY.`.`.W.].",
"W.Q.Y.Y.`.W.Y.Q.D.& W.G.k.h.1.1.O.#.O.0.M.q.3.V.!.].W.U.W.E.!.W.U.U.].].W.W.E.!.'.!.+X'.T.W. X XW.W.",
"!.U.T.Q.Q.T.Q.].S.1 Y.2.<.x.8.#.s.-.` %.*.A 8.XXE.2X!.W.!.!.+X!.].].@X+X'.].!.W.W.E.!.!.Y. X`.Q.`.W.",
"+XE.E.E.I.U.Q.E.< - : 6.8.v b n.%.a.a.p.m.#.c.XXW.3XY.Q.].@X%X'.].].].!.!.!.W.U.+X>X-X#XQ.Q. X`.`.Q.",
"!.!.E.I.U.E.Q.E.W.~.; N.O.y u P f %.=.^ -.v.J N OX1XY.<Xf.2 G.oX3X4XW.!.@X@X'.].R.oXC..X=XQ.Y.W.Q.`.",
"W.+X!.!.*X=X!.!.W.j.% K | &.=.=.Y y.a.] -.d.r.m J {.}.F = L c.G 9.^.,X+X@X].!.].^.x.S >.).U.P.Q.`.Q.",
"I.E.Q.!.:X:X#XE.O : B D T f I Q %.*.t.p.-.-.t.*.b c c b t.t.e.t.;.+.,.V.+X!.].OXK v.M.@.B.oXW.W.].'.",
"E.!.W.U.E.W.W.W.@ @XM ,.T I Q p d y g $.I %.%.-.u.p.s.y.{ [ ) _ { y.;.@.,.>.L H #.i.m.z.1.].+X].Q.`.",
"$XE.!.!.I.U.].A.& %X3.8...E I 9 y s u i a z E z ~ $.&.=.=.{ [ _ _ [ y.b.v.0.+.| b.*.o.H C.U.W.!.W.W.",
" X$X`.U.R.!.!., 3 #Xk.B v O.o.T 8 0 7 7 t q z q i j l T } X.X.! / / ( =.s.i.;.-.U ^ v.M.XXE.'.@X`.Q.",
"Q.#X+XY.U.!.W.# 3 !.E.k.M Z ..w.7. .w z t q 7 t i i h j x x x X.( W W ' &.$.o.*.b.+.H x.!.].@X;X XQ.",
"T.Y.Q.Q.W.!.+X+ S.!.W.].[.~.:.% 7. .w.x X.} u l i w 9 8 9 w t p a d P Y U d r r e c >.~.].!.W.!.].W.",
"Q. X].Q.!.W.E.@ E.!.].!.].]./.* B.q.q.$ ..A O.....D C C k k k s s n | o.o.| R n v % O 1 %X*X].!.+X`.",
"Y.Q.Q.W.Y.Q.!.A.!.!.'.W.!.'.!.4.  # & j.!.,XOX/.l.k.6.5.2.>.S N V S D A | o.O.A S 6.k.&X@X%X!.W.U.W.",
"Q.Q.Q.Q.Y.U.W.].*X+XE.W.!.'.#X@ 4 S.X -X].Q.Q.W.!.+XW.].`.,X|.[.(.(.(.^.Z.Z.3.% (.2XW.W.].].U.U.W.+X",
"Q. XQ.T.+X+XR.!.!.!.!.W.W.].!.+ 5 5 + #X!.Q.W.`.`.+XW.].'.!.E.W.E.!.!.!.!.].'.. H.+X+X!.!.+X!.!.+X+X",
"].Q.Q.].!.@X@X].].U.R.!.!.!.U.F.  > 6  X].Q.W.Y.W.Q.Q.W.W.!.E.E.].+X!.!.E.].].*X@X&X%X+X!.+X+X!.!.Q.",
"].Y.W.Q.+X@X+X].!.E.!.!.W.Y.U.W.!.Q.Y.Q.#X X`.Y.R.U.I.].W.K.R.I.R.E.!.!.'.!.'.E.W.'.].+X+X@X;X!.].].",
"Q.Q.W.P.U.U.U.].!.].+X!.W.Q.W.Y.Y.Q.Q.Q.`.Q.`.Q.@X+XU.].!.I.W.L.E.!.E.'.E.!.E.I.L.L.U.!.].].+X].+X+X",
"Y.`.-X X XQ.W.+X XY.T.`.Q.Q.W.W.Q.Q.Q.Y.Q.T.W.U.U.W.!.W.R.!.E.@XE.+X+X+X!.].!.I.K.S.D.I.!.%X!.R. X`.",
" X].W.U.`. X].%X XQ. X X].Q.Q. XT.Q.Q.Q.Q.Q.Q.].W.I.!.+XR.!.@X@XE.+X+X!.E.!.+X].].!.!.].!.+X+X@X].].",
" X`.Y.J. X X].@XQ.Y.`.Q.T.Y.T.Q.Q.Q.Y.Q. X X#X].].!.].].E.].;XF.L.!.+X+X'.!.!.!.+X].].!.#X;X;X*XW.U.",
"Q.Q.$XQ.Y.U.].+X XY.Y.Q.`.Q.Q.Q.Q.!.Y.W.W.Q.Q.Q.R.@X:X+X].E.%X!.E.%X+X].!.!.!.].].].E.+X>X>X>X%X+X].",
"'.'.W.'.].R.W.!. XW.Q.Q.].].`. XQ.Q.T.Q.Q.Q.Q. X+X%X:X@X].'.W.'.+X+X@X*X+X!.I.D.F.@X+X+X:X*X+X'.].].",
"+X!.!.+XW.L.U.W.'.`.Q.Q.T.Q.Q.].!.Q.Y. XY.`.Q.E.!.'.+X+X].].'.'.!.'.!.].].].R.F.I.].].+X+X+X].'.W.Q.",
"*X+X'.E.W.U.I.I.Q.+X].Q.U.W.Q.Q.`.Y.W.+X XQ.Q.Y.+X+X!.+X!.!.'.!.W.+X@X+XW.W.!.+X].+X@X@X+X+X].'.].].",
"+X+X!.!.@X@X@X+X`.+X].].T.Q.Q.Q.E.W.].!.$X`.Q.`.+X+X!.+X].!.'.+X!.W.E.!.+X+X+X@X@X%X%X@X@X].R.W.Q.Q.",
"@X+XE.%X@X+X%X].!.].].+XQ.Y.Y.Y.I.].W.W.U.+X].+X+X].!.!.].!.].@X+X+X!.+X!.I.I.R.@X@X%X+X@X+XR.R.T.`.",
"E.E.K.!.+X+X+XW.'.].].].Q.P.Y.Q.+X!.W.!.E.!.+X+X!.].+X!.!.R.].@X+X].E.W.!.E.R.!.+XW.+X+X+X+X+X!.W.'.",
"E.].E.!.!.!.R.!.+X].@X].!.U.W.`.+XW.].].@X!.+X+XE.!.@X+X!.!.!.].`.`.!.W.E.E.R.+XR.R.W.W.W.!.!.!.W.W.",
"].R.E.!.R.W.U.W.].!.@X+X@X!.W.Q.E.+X+XE.+X%X%X!.].].+X!.!.@X!.U.Y.].#X XR.R.'.!.!.+X+X+X+X+XE.+X X$X",
"E.E.'.E.'.!.!.].!.W.E.!.W.#X].R.!.+X].!.!.#X+X!.].].!.].].!.!.!.U.Y.P.!.+X@X@X`.`.+X$X%X+X+X X].@X X",
"!.'.!.E.!.!.].].!.!.!.].E.!.!.!.W.+X+X!.].+X+X].+X].+X+X@X+X+X].L.U.U.].%X%X`.Y.!.].+X%X#X!.`.W.`.'."
};
