/* XPM */
static char *policeb[] = {
/* columns rows colors chars-per-pixel */
"50 50 147 2 ",
"   c #0E0E0E",
".  c #141414",
"X  c #1B1B1B",
"o  c #242424",
"O  c #242B23",
"+  c #2D2B24",
"@  c #2D262E",
"#  c #202A2B",
"$  c #2B2B2B",
"%  c #302A2A",
"&  c #373529",
"*  c #282D31",
"=  c #332C31",
"-  c #2D3331",
";  c #333333",
":  c #3C3C3C",
">  c #450C05",
",  c #4F1106",
"<  c #6C0D0B",
"1  c #423E1E",
"2  c #4B4813",
"3  c #444444",
"4  c #48454C",
"5  c #4B4B4B",
"6  c #535353",
"7  c #5D5D5D",
"8  c #646464",
"9  c #6B6B6B",
"0  c #6C7272",
"q  c #747575",
"w  c #777978",
"e  c #7B7C7C",
"r  c #8D1717",
"t  c #A90510",
"y  c #882829",
"u  c #837A73",
"i  c #A3B01A",
"p  c #878E24",
"a  c #96984D",
"s  c #0A0BC2",
"d  c #0A3CC2",
"f  c #620AC2",
"g  c #820AC2",
"h  c #828282",
"j  c #868A89",
"k  c #8B8B8C",
"l  c #918B8B",
"z  c #8A9694",
"x  c #8E999B",
"c  c #949494",
"v  c #9B9493",
"b  c #939997",
"n  c #9B9C96",
"m  c #989699",
"M  c #949B9C",
"N  c #9C9C9C",
"B  c #B09287",
"V  c #A29B9A",
"C  c #95A09F",
"Z  c #A7A29F",
"A  c #A5A89F",
"S  c #959FA0",
"D  c #92A2A1",
"F  c #9DA4A5",
"G  c #9FA7A9",
"H  c #9DB1AF",
"J  c #A3A3A3",
"K  c #ABA5A3",
"L  c #AEA9A6",
"P  c #A3A4A9",
"I  c #A8A7AC",
"U  c #A3ABAC",
"Y  c #ADAAAB",
"T  c #B3ADAC",
"R  c #B6B1AE",
"E  c #B9B2AF",
"W  c #ADADB1",
"Q  c #B8AFB0",
"!  c #A4B4B3",
"~  c #ABB3B4",
"^  c #AEB6B8",
"/  c #A8BBB9",
"(  c #B6B1B1",
")  c #BBB5B4",
"_  c #BEB9B6",
"`  c #B4B3B8",
"'  c #B2BBBB",
"]  c #BEB9B9",
"[  c #C1BBB7",
"{  c #C0B7B8",
"}  c #C2BCBB",
"|  c #B6C6BC",
" . c #C6C1BE",
".. c #C2BDC2",
"X. c #B5C1C1",
"o. c #BCC3C4",
"O. c #BDC7C8",
"+. c #BCCCCE",
"@. c #BFD5D2",
"#. c #C6C1C1",
"$. c #CAC4C3",
"%. c #CECAC6",
"&. c #C1C6C9",
"*. c #C2CCCD",
"=. c #CDCBCA",
"-. c #D0C8C6",
";. c #D2CDCC",
":. c #C8D1CE",
">. c #D5D0CE",
",. c #C4D4D5",
"<. c #CFD3D2",
"1. c #C5D8D5",
"2. c #C7DBDA",
"3. c #D4D3D4",
"4. c #DAD5D4",
"5. c #D3D9D7",
"6. c #DCD8D7",
"7. c #D5D3D8",
"8. c #D8D6DB",
"9. c #D3DADB",
"0. c #DBDBDB",
"q. c #E1DEDE",
"w. c #C9E2DE",
"e. c #DBDFE0",
"r. c #CBE7E8",
"t. c #CFE9E8",
"y. c #D1E3E3",
"u. c #DFE5E6",
"i. c #D3E9E6",
"p. c #D7E4EA",
"a. c #D5ECEC",
"s. c #D9EDEE",
"d. c #D5F2EF",
"f. c #DCEEF1",
"g. c #D7F3F4",
"h. c #DBF2F2",
"j. c #E2E2E3",
"k. c #E9E2E3",
"l. c #E2E8E8",
"z. c #ECECED",
"x. c #F3EDEF",
"c. c #F4F3F4",
"v. c #FCF3F4",
"b. c #F6F7F9",
"n. c #FAF3FA",
"m. c #F6FCFD",
"M. c #FDFDFE",
/* pixels */
"R L K E R _  .T R R R _ _ L T E E _ _ ) } ] ] ] { } ] W L Q ) ) R E E _ | [  .[ [ [ } { T E _ _ { [ ",
"K R L _ _ [ R ) _ E )  . .E L T ) ) ) _ $.} ] { ) ) ] ] ) Q Q Q R  . . . .[ [  .} $.#.{ E [ [ _ ) ] ",
"L _ ) [ R R L [ _ R E _ _ E Z T ) ) } } #...) ( ] ) ) Q T Q ` ] _ $.$. . . .[ $...) ) ] ( E ) _ T Q ",
"E R ) _ L R Y _  ._ E _ | [ E [ ] { } T T ] Q Q T ) ) Q Q ) { } _  ._ R [ } ) [ _ _ ( T T _ _ ( ] ] ",
") T E ) _  .E E _ _ R _ | ) E E ] ..} T T } ] ] Q ) ) Q ` ] ] ] R R E R ) [ ) ) { _ )  . .) ) } ] } ",
"[ ) E E  . .E ) E _ L E E R E R { ] ] { ..#.) { ..Q J K T Q Q ( E R _  .) ) [ ) _ [  . .} } ] ) ] ] ",
"[  .E E | E ) ) ) ) E E E E _  .] ) Q ] } .._ { { T Z Y ` Q Q ) [  .) ) E E ) [ _ _ ) _ #.] ) _ ] ] ",
") L L E T E  .R E E [ ) ) [ E  .) } ] ..#.#.} } #.} ] ) ) T Q ) [  .E R [ ) [  .{ [ ) ) } #...$.Q ( ",
"L R R ) R _ R L _ _ _ [ [ ) ) _ { } { ) $.;.#.} ....$.] { ] ) #.#.-.$.{ _ _ } } )  ._ _ [ ( ) ..] } ",
"R _  . .) R R L _  .%. .E R E  .{ ..} ) ( _ ..;.%.$.[ {  .#.#.;.;.4.3...) R ) _ _ _ _ _ [ } ] } ) ) ",
"_ _  . . .) _ E E _ [ _ ) ) ) E _ } } f d f d f -. .[ [ _ ) ] ) } #.%.{ ) ) [  . .) ] ) ]  .] ) ....",
"L E  .) R E  . .$. . ._ ) ) [  .} ] ( d s s s d [ ) ) } [ _ [ _ Q ] _ ` E _ [ [  ._ [ _ _ [ } ] { } ",
"L  . .| L E E E  . . . ._ _ E [ ] ] ) d s g s d  .[ [ } [ _ [ ) ) ] ] ] ) [  .) ) _  . .) R [ }  . .",
"T E R E R  .[ R _ R R _  . .) E Q } ..d s g s d } ) ) } }  .#._ Q ] } { _  ._ _ E _ _  ._ R } }  . .",
" . .E E E ) E R  . .E ) _  . .| } ..V f d f d f Z { } ..} $.#._ { } [ _ _ _ ) E [ E )  .{ _ }  . .$.",
"_ E E _ E [ [ ) _  ._ R R _ >.Y X.8.v.M.m.m.b.M.b.j.| Y =...} } %.$.] ) E  ._ ) E Z Z L _ { _ [ [ [ ",
"] ( _ ) E  .%. .) } _ ) _ m Y e.8.l.9.k.M.8.5.0.9.0.k.v.n k j.#.( } ] K ) .._ #...T T Q E  .E R _ } ",
"( _ _ )  .| ) _ ) T ) { e w 3.S W H / b 3.z / ! ! ~ F :.' 0 b 9.] ] } ] { { ( ..$.>.$.}  .E _  ._ ] ",
"( _ R R  .E R _ T L ) j k e.M e.h.a.i.G 9.! g.s.h.s.w.D u.o.U D 5.T } } ] ) Q ] _ ] ..{ ) E  . .) ) ",
"{ T R  .E E _ ] [ ) c h j.! +.a.a.s.s.I 7.U h.a.f.a.h.+.Y n.I X.G z.$.$.} } ] ) ) ) { { R  .[ ) [ ) ",
"} ( Q ( L T _ ( ) ( q =.u.H s.g.f.a.y.P 3.U s.s.p.h.r.s.G z.j.F ' ~ ] _ { { ) Q } 6.;.#.} {  .[ ) _ ",
"..{ T T T ( _ ) ) j M m.^ O.h.t.s.d.d.U 9.! d.s.f.a.d.h.X.&.M.^ o.U u.{ $...] } _ ..4.q.>.) E ) [ [ ",
") } _ { >.>.} _ N w :.M.N O.,.1.,.@.1.b <.C 1.,.1.@.2.,.X.N M.l.C ' P b.c.x.M.M.M.M.{ } [ L T [ [ _ ",
"Y ) ) } 4.8.W P m ( c.M.' W ^ ^ ` ! ~ ] x.( ~ ^ ~ ~ ` ~ ! o.M.M.*.G F Y W ~ Y | z.b.T ) ) ) ) E { [ ",
") ] ( T ) Y l.v.M.M.M.M.M.M.M.M.M.M.M.M.M.M.M.m.M.M.M.M.M.M.M.M.M.M.M.M.M.b.b.3.A 3. .{ _ { } } _ [ ",
"$.( ] ] =.| M.M.M.M.M.M.M.M.M.M.M.M.M.M.M.n.M.n.M.M.c.M.M.M.M.M.M.M.M.M.M.M.M.M.m.Y 4.R T ( _ { ) _ ",
"} %.[ T B V &...o.#.] &.&.=.z.M.M.M.( h I j P &.3.I k C a =.M.M.M.c.z.j.j.4.u.6.u.<.n ] R ) } $._ _ ",
"_ %. .=.r , * = $ $ ; $ + ; 5 c c.M.c 7 7 m 7 P ` 7 I Z 8 3.M.c.N 7 3 ; : : : 3 : 4 &  .{ } $.>. ._ ",
"E R _ [ t < & - ; ; X X   . X $ 9 z.J ] ` e 9 a V e w e 9 7.z.8 $ X . . . . $ $ + = 1 a } } ) { .._ ",
"_ $.[ _ y > $ ; $   o : 3 : X   $ J l.c.z.3.j.=.7.l.;.z.+.p.k @ . o ; 3 : $   $ ; * 2 i $.;...) } [ ",
"R ) ) E u + = = X & 3 3 3 3 3 $   6 x.M.M.M.M.M.M.M.M.M.M.z.4 X o 5 3 3 3 3 ; . - = 1 p %.-.{ ( T _ ",
"[ _ [ [ x * ; # X 3 3 9 7 8 3 3 X $ &.M.M.M.M.M.M.M.b.M.n.7.= . 3 : 8 8 9 3 3 o O = @ u } } ( ( ( ..",
"_ $._ R Y X $ o ; : 8 5 : 8 5 3 o $ 5 9 8 8 9 8 9 8 9 8 8 6 $ o 3 6 8 : 5 8 3 & o # X k }  .] } #.$.",
"[ _ [ [ } ; $ X $ 3 7 5 3 5 7 5 $ $ ; ; $ $ ; $ $ $ $ $ ; ; o o 5 6 6 : 3 8 3 ; o = $ Y } ....] ] ] ",
"_ R ) ) } 9 o X o 3 5 9 7 9 : 3 X X $ $ $ * ; % $ $ ; $ $ $ X . : 3 9 7 9 5 4 o X ; 6 } } %.;.} { [ ",
"_ _ R R E Q ` 8 o 3 3 3 3 3 4 : o o $ O o + o o o o $ o o $ o o : 5 : 4 5 : 3 o 9 P T { } } $.} #.#.",
"R  .>.-.$.) ] ..e.l 3 : 3 3 5 Z [ ) E R _ E ) T ( _ { _ Q _ Q #.P 5 3 3 : 3 k j.Z l v Y } #.} `  .[ ",
" ._ ) L } [ } %. .c.=.b h b 3. .E [ [ ) _ ) _ ] ( Y { $.( ] -.#.( 3.N h c =.} } ..) { } { #.$.$. .] ",
"$. .L A #.#.} #._ )  ._ E R R _ [ ) R _  .$.#. .} { } } Q ] 3.V K } ..} ] ] ] ] $.} } { $.;.;.;.) R ",
") _ %.[ ( T } #. .E E ) [ [ ) ) [ | E ) ) ) _ _ ( $.4...} ) -.{ R $.$.} ] { } } } } ( $.6.q.6.%.#.} ",
"{ { ) _ } Q Q {  .E _ ] [  ._  .E _ E | [ { ) %.#.-.4.#.} { ) { ..} %.;. .[ T V V #...$.4.;...{ } } ",
"#.) } ..Q K Q ) { [ ] _ ) _ )  . .E R  .R [ E E ] { #.$...} { { } _ { } } } T V Y } ....$.} } { ) ] ",
";...] Q ) Q Y Y _  .{ _ R ) _ _  .R _  . .) ) R #.#.{ #.{ { { } _ ..-.} [ E [ } } ..-.-.#.} } } } { ",
"} %.] } $.#.%.#.{ $.} } E ) _ ) R E  .[ -.[ [ [ #.#.{ $.{ _ } ..{ _ ( [  . .} ..#.-.-.#.%.} T _ { _ ",
"-...( $.-.$.;.} _ ..} #._ R R R T [ ) E R  .} $.#.} ] ] ..] } .. . .[  .] T Y ) $.%.-...#...Q Q ( [ ",
") Q J ] ....} ) } } } } _ L R _  .) ) _ R { ..$.] } ..] ) Q } $. .[ ) _ ) Q Q } ..[ ..} ..%.$.{ ) [ ",
"Q .._ ) { ) ( _ ..[ #.{ ] T E [ $.) } } #.} #...( } $.#.{ } } }  .[ _ ) Q Q Q } ) Q _ _ ) } { { ) E ",
"} T Q ] Q ) T _ ..] %.#.$.] _ { )  .} ) #.-.$.} } } } } } #.) T T [ #. .) Q ) { _ $.....#.} _ }  .-.",
"Q ) ) ) ) ] ..} _ ) R } _ #.] ( ]  .] ] ] #.#.] #.] } } } { ] _ T R L _ $.$.$.[ ] #.$.=.#.#. .[ $.$.",
"{ ) ] ) { { } } { { _ ] ( ] ] _ ] #. .] } #.#. .#.] ..$.$.#.#.} K Y T  .%.%.[ ( ] }  .%.#.[ } _ { _ "
};
