/* XPM */
static char *police[] = {
/* columns rows colors chars-per-pixel */
"50 50 163 2 ",
"   c #0E0E0E",
".  c #141414",
"X  c #1B1B1B",
"o  c #242424",
"O  c #2D2B24",
"+  c #202A2B",
"@  c #292929",
"#  c #2B2B2B",
"$  c #302A2A",
"%  c #373529",
"&  c #282D31",
"*  c #332C31",
"=  c #2D3331",
"-  c #333333",
";  c #3C3C3C",
":  c #450C05",
">  c #4F1106",
",  c #6C0D0B",
"<  c #423E1E",
"1  c #4B4813",
"2  c #444444",
"3  c #48454C",
"4  c #4B4B4B",
"5  c #535353",
"6  c #5D5D5D",
"7  c #646464",
"8  c #6B6B6B",
"9  c #6C7272",
"0  c #747575",
"q  c #7E7673",
"w  c #777978",
"e  c #7B7C7C",
"r  c #8D1717",
"t  c #A90510",
"y  c #882829",
"u  c #9D3228",
"i  c #973A35",
"p  c #943B3B",
"a  c #9D383A",
"s  c #C31B1B",
"d  c #D71F1D",
"f  c #C21E27",
"g  c #CC2425",
"h  c #D7272A",
"j  c #E02422",
"k  c #935B5A",
"l  c #9F5A5D",
"z  c #896064",
"x  c #876863",
"c  c #837A73",
"v  c #A26064",
"b  c #A3B01A",
"n  c #878E24",
"m  c #96984D",
"M  c #828282",
"N  c #868A89",
"B  c #8B8B8C",
"V  c #918B8B",
"C  c #8C9898",
"Z  c #949494",
"A  c #9B9493",
"S  c #939997",
"D  c #9B9C96",
"F  c #989699",
"G  c #949B9C",
"H  c #9C9C9C",
"J  c #A58382",
"K  c #B09287",
"L  c #A29B9A",
"P  c #95A09F",
"I  c #A1A290",
"U  c #A7A29F",
"Y  c #A5A89F",
"T  c #959FA0",
"R  c #9D9EA0",
"E  c #92A2A1",
"W  c #9DA4A5",
"Q  c #9FA7A9",
"!  c #9CAAAB",
"~  c #9DB1AF",
"^  c #A3A3A3",
"/  c #ABA5A3",
"(  c #AEA9A6",
")  c #A3A4A9",
"_  c #A8A7AC",
"`  c #A3ABAC",
"'  c #ADAAAB",
"]  c #B9A3A6",
"[  c #B3ADAC",
"{  c #B6B1AE",
"}  c #B9B2AF",
"|  c #ADADB1",
" . c #B8AFB0",
".. c #A4B4B3",
"X. c #ABB3B4",
"o. c #A7BAB6",
"O. c #AEB6B8",
"+. c #A8BBB9",
"@. c #B6B1B1",
"#. c #BBB5B4",
"$. c #B0BBB7",
"%. c #BEB9B6",
"&. c #B4B3B8",
"*. c #B2BBBB",
"=. c #BEB9B9",
"-. c #C1BBB7",
";. c #C0B7B8",
":. c #C2BCBB",
">. c #B6C6BC",
",. c #C6C1BE",
"<. c #C2BDC2",
"1. c #B5C1C1",
"2. c #BCC3C4",
"3. c #BDC7C8",
"4. c #BCCCCE",
"5. c #BFD5D2",
"6. c #C6C1C1",
"7. c #CAC4C3",
"8. c #CECAC6",
"9. c #C1C6C9",
"0. c #C2CCCD",
"q. c #CDCBCA",
"w. c #D0C8C6",
"e. c #D2CDCC",
"r. c #C8D1CE",
"t. c #D5D0CE",
"y. c #C4D4D5",
"u. c #CBD7D6",
"i. c #C5D8D5",
"p. c #D4D3D4",
"a. c #DAD5D4",
"s. c #D3D9D7",
"d. c #DCD8D7",
"f. c #D5D3D8",
"g. c #D8D6DB",
"h. c #D3DADB",
"j. c #DBDBDB",
"k. c #E1DEDE",
"l. c #C9E2DE",
"z. c #DBDFE0",
"x. c #CBE7E8",
"c. c #CFE9E8",
"v. c #D2E6E4",
"b. c #DFE5E6",
"n. c #D7E4EA",
"m. c #D5ECEC",
"M. c #D9EDEE",
"N. c #D5F2EF",
"B. c #DCEEF1",
"V. c #D7F3F4",
"C. c #DBF2F2",
"Z. c #E2E2E3",
"A. c #E9E2E3",
"S. c #E2E8E4",
"D. c #E2E8E8",
"F. c #ECECED",
"G. c #F3EDEF",
"H. c #F4F3F4",
"J. c #FCF3F4",
"K. c #F6F7F9",
"L. c #FAF3FA",
"P. c #F6FCFD",
"I. c #FDFDFE",
/* pixels */
"{ ( / } { %.,.[ { [ ( -.-.( } } } %.%.#.:.%.=.=.;.:.#.[ '  .@.=.{ #.{ %.%.,.,.%.} %.,.%.{ { %.%.=.-.",
"/ { ( %.%.-.{ #.-.} -.,.,.} Y [ ;.} #.%.7.:.=.;.@.#.=.=.#. .@. .{ ,.,.,.,.,.,.,.,.,.6.=.} -.-.%.@.%.",
"( %.#.-.{ { ( -.>.{ #.#.-.} Y [ #.#.:.:.7.<.@.@.=.;.=.@.[  .@.=.%.7.7.,.,.,.#.,.<.#.#.#.} } #.#.@. .",
"} { #.%.( { ' %.,.#.} #.-.#.} -.;.:.:.'  .;.@. .[ @.#. .[ #.:.:.%.,.%.} #.,.#.,.%.=.@.[ { #.%.#.%.=.",
"%.( { #.%.,.} } %.#.} %.%.#.#.#.;.<.:.[ [ :.#.=.@. .#. .#.=.=.=.{ [ } #.%.-.#.#.;.%.#.,.-.%.@.<.:.:.",
"%.%.} } ,.,.} #.#.#.[ { } { } { :.;.;.;.<.7.%.=.<. ./ / [  . .@.#.{ %.-.#.%.-.} #.:.,.,.:.:.=.%.=.=.",
">.-.#.{ %.} #.#.#.#.} } { } #.,.=.#. .;.:.:.@.;.:.' ^ ' @. . .&.-.,.%.} } { ;.-.%.%.#.-.6.%.@.;.%.=.",
"} [ ( { { #.,.{ #.} -.} ;.>.#.,.@.:.=.<.7.7.:.<.7.:.#.=.@. .@.#.%.,.} { %.#.-.,.-.-.#.#.<.7.:.7. . .",
"[ { { #.{ %.{ ( %.#.%.,.-.%.} %.%.:.%.#.7.q.7.=.<.<.7.;.;.%.#.7.7.7.7.:.%.%.:.:.#.,.%.#.%.#.#.<.=.:.",
"[ -.,.,.%.} [ [ #.,.,.,.%.( } -.%.,.,.#.@.#.<.e.w.7.:.;.,.6.7.e.e.p.t.<.@. .#.-.%.-.%.%.-.:.=.:.@.=.",
"-.-.,.,.-.%.#.} } #.,.%.%.} } } #.:.,.] J v J | w.,.-.-.=.#.#.#.<.7.7.:.#.#.-.-.,.#.%.#.=.,.=.#.:.<.",
"( } -.#.} } ,.,.,.,.,.-.%.%.-.,.=.=.$.p f h g a ;.#.#.:.-.#.-.%.#.;.=.@.#.-.-.-.,.%.,.%.#.=.:.;.:.:.",
"( ,.,.>.( { } } ,.,.,.,.-.%.} -.=.=.#.p h j g a ,.%.%.,.-.%.-.#.#.;.=.#.%.%.-.%.%.%.,.,.#.{ -.:.:.:.",
"{ } [ } { ,.-.{ %.{ { %.,.,.-.[ @.:.7.i s d g u ,.#.#.=.:.,.,.%.@.;.:.:.%.,.-.%.{ %.%.,.#.{ :.:.:.7.",
",.-.#.#.{ } } { ,.,.#.#.%.,.,.>.:.<.L z v l k x P ;.,.6.<.7.6.=.:.:.-.%.%.%.%.} -.} #.>.:.-.:.6.,.7.",
"#.} #.%.-.-.-.#.%.,.%.{ { %.t.( <.g.H.I.P.P.K.I.K.Z.=.' q.6.:.-.7.7.=.#.#.-.-.} } U U ] #.;.%.-.-.:.",
"=.#.%.#.} ,.8.,.#.-.%.%.-.F _ z.f.D.h.A.L.d.s.j.s.k.A.J.D N A.,.@.:.=./ @.<.%.7.<.[ ( #.} ,.} #.=.:.",
"@.%.#.%.,.>.#.%.#.[ #.;.e w p.T X.~ +.C u.C +.....o.Q r.*.9 C h.=.=.:.=.;.;.@.<.7.p.7.:.,.{ %.-.#.=.",
"#.#.{ { ,.} { %.{ ( %.M B z.G z.C.m.v.` h...C.N.B.C.l.E S.2.` E s.[ :.:.;.#.@.=.%.;.<.;.#.#.-.,.%.#.",
";.[ } %.#.} %.=.%.#.Z M b.| 4.m.M.m.M._ f.` C.m.B.n.C.4.| L._ 1.Q F.7.7.:.:.=.#.@. .:.;.{ ,.-.%.;.#.",
":.@. .@._ [ %.{ %.$.9 q.D.! M.V.B.m.v.) p.` M.B.n.C.x.B.W F.Z.R *.X.=.%.=.;.%.@.:.k.e.7.:.;.-.,.%.%.",
"<.;.[ [ [ #.#.%.#.N H P.+.3.C.c.m.N.N.` s...N.m.C.m.N.C.1.9.P.*.2.` b.;.7.7.;.:.#.:.a.d.t.%.{ %.%.-.",
"@.:.%.=.t.e.-.%.H w q.I.H 3.u.i.y.5.i.S u.G i.y.i.5.i.y.1.P I.F.G *.Q K.H.F.I.P.I.I.;.:.%.( [ %.-.%.",
"[ %.@.:.a.d.X.) F &.G.I.*.| O.X.&.X.X.=.G.@.X.&.o.X.&.X.X.2.L.I.0.Q Q _ @.| ' =.F.L.{ #.#.%.#.} ;.-.",
"@.:.@.[ @.| S.J.I.I.I.I.I.K.I.I.I.I.I.I.I.I.I.I.I.I.I.I.I.I.I.I.I.I.I.K.I.K.H.s.Y p.,.%.%.-.:.;.%.-.",
"7.@.%.=.q.>.I.I.I.I.I.I.I.I.I.I.I.I.I.K.I.I.I.I.I.I.K.I.I.I.I.I.I.I.I.I.I.I.I.I.K.' p.#.[ { %.=.#.%.",
":.w.:.[ K I 9.<.<.9.>.6.9.e.F.I.I.I.@.M _ N ^ ,.p./ B L M q.I.I.I.H.A.Z.Z.d.b.d.b.p.D ;.@.@.:.7.%.%.",
"-.7.,.q.r > & * # # - # # - 4 Z H.I.Z 6 6 D 7 P &.6 _ P 7 p.I.H.H 6 2 ; ; ; ; 2 ; 3 % 6.;.:.7.t.,.%.",
"} { %.%.t , - = - - X X   . X # 8 F.^ =.&.w 9 M L e 0 M 8 t.F.7 @ X . . . X # $ O * < m :.:.#.=.:.%.",
"%.,.,.#.y : $ - # . o ; 2 ; X   # ^ D.H.G.s.A.7.s.D.q.F.q.b.B # . o - 2 - #   # - & 1 b 7.e.<.%.:.-.",
"{ #.%.#.c O * * X $ 2 2 2 2 2 #   5 G.I.I.I.I.I.I.I.I.I.I.F.4 . o 4 2 2 2 3 - . & * 1 n 7.e.=.@. .#.",
"%.%.=.;.S & - + X 2 2 7 7 7 2 2 X # 9.I.K.I.I.I.I.I.K.I.I.q.- X 2 ; 7 7 8 2 2 o + * & q ;.:.@. .#.<.",
"-.7.%.{ _ o @ o = ; 7 4 2 7 4 2 @ # 4 8 7 7 8 7 8 8 8 7 8 5 o o 2 5 7 ; 4 6 2 - o # o B =.6.=.:.6.7.",
"-.%.-.-.:.- # X # 2 6 4 ; 4 6 4 # # - - @ # * & # # # @ - - o o 4 5 5 ; 4 7 2 - @ # # ' ;.:.<.=.=.=.",
">.} #.#.:.8 @ X o 2 2 8 6 8 2 2 X X @ # # # - % # # - # # # X . 2 2 8 6 8 4 4 o X % 5 <.<.7.e.:.;.-.",
"-.#.#.[  .[ @.7 @ 2 2 2 2 2 4 - X @ @ @ @ @ @ X @ o @ o o @ o o - 4 ; 4 3 ; 2 o 8 ) ' =.:.:.7.:.6.6.",
"{ -.e.w.7.#.=.<.j.Z 2 ; 2 2 4 ^ %.%.} { #.#.#.[ [ #.=.%. .%.@.7._ 3 2 2 ; 2 B k.^ V A ' :.7.;.@.,.-.",
",.-.%.( -.-.:.w.,.H.q.D M F t.,.} %.%.#.%.%.-.-.@.' ;.7.@.=.7.7.@.p.H M F q.:.:.:.#.:.=.;.7.6.7.,.%.",
",.-.{ U 6.6.:.7.%.#.-.%.#.{ { %.-.-.{ #.,.7.7.:.:.;.:.:. .:.p.L / :.<.:.%.%.=.=.7.:.;.-.7.e.p.e.#.{ ",
"-.#.w.-.@.[ :.6.,.{ { %.%.%.#.%.-.>.} #.#.#.%.-.@.7.a.<.:.@.w.;.{ 7.7.:.=.;.:.:.:.:.#.6.d.k.d.8.7.:.",
";.;.;.#.:. .#.;.-.%.%.=.-.,.%.,.} %.} >.-.-.%.,.7.w.a.7.:.;.;.;.<.:.7.e.,.-.[ L L 7.:.7.a.e.<.;.:.:.",
"7.#.:.:.#./ [ #.%.;.;.%.#.%.#.,.,.#.{ ,.[ -.} } %.:.:.7.:.:.;.;.:.;.:.:.:.-.{ L ' :.:.7.7.<.:.%.@.=.",
"e.<.=. .#.[ [ _ =.:.:.=.{ #.%.%.,.[ #.,.,.-.-.{ <.7.:.<.;.=.;.:.=.:.w.:.-.} ;.:.<.<.w.7.7.<.:.:.-.:.",
"<.7.=.:.7.7.7.7.=.7.;.:.{ %.%.#.{ { ,.,.,.-.-.-.<.7.;.<.:.%.:.:.=.=.@.-.,.,.:.7.<.w.w.7.7.:.[ #.=.%.",
"7.:.#.q.w.7.q.;.%.<.;.7.%.#.{ { [ -.#.} { <.:.7.:.:.;.:.<.#.<.<.,.,.-.,.:.[ _  .7.7.w.7.7.<. . .} %.",
"#. .U #.<.:.7.@.;.:.:.:.#.( { #.,.#.#.%.@.;.<.7.-.:.<.=.#. .:.7.,.;.#.%.=.[ [ :.<.=.<.:.:.w.7.;.%.%.",
"@.<.#.#.#.;.&.=.6.:.7.;.%.[ } ,.6.#.-.;.7.;.7.:.@.:.7.7.:.=.;.:.,.-.%.#. . .@.:.#.[ %.%.%.:.;.;.#.} ",
"<. . .;. .#.[ %.:.=.w.<.7.%.#.%.%.,.,.#.7.8.7.:.:.:.:.;.:.7.#.[ { -.,.,.#. .%.;.;.7.<.:.6.;.%.<.7.w.",
" .@.%.@.%.#.<.:.%.#.{ =.=.6.:.#.=.,.:.=.=.6.6.=.6.=.=.:.:.=.=.=.' { ( %.7.w.7.;.=.6.7.q.6.7.7.-.7.:.",
"%.;.;.@.:.;.:.:.;.;.%.-.@.=.=.%.#.,.<.=.:.6.,.,.6.=.6.7.7.7.<.:./ [ [ ,.q.7.-.{ %.:.,.q.,.-.-.%.;.;."
};
