/* XPM */
static char *sborrolino[] = {
/* columns rows colors chars-per-pixel */
"50 50 208 2 ",
"   c #020101",
".  c #0D0904",
"X  c #0D0D09",
"o  c #120A03",
"O  c #150A09",
"+  c #190D0A",
"@  c #0B1206",
"#  c #1D130D",
"$  c #140D12",
"%  c #0E1712",
"&  c #191515",
"*  c #1E1A11",
"=  c #1C1C1D",
"-  c #22150C",
";  c #26180E",
":  c #221512",
">  c #2B1612",
",  c #241D14",
"<  c #2B1A13",
"1  c #221B19",
"2  c #2C1D1A",
"3  c #341B1A",
"4  c #1D2017",
"5  c #202308",
"6  c #25221A",
"7  c #392414",
"8  c #35251D",
"9  c #2D2422",
"0  c #372724",
"q  c #342C24",
"w  c #342B28",
"e  c #3C2E29",
"r  c #3C332B",
"t  c #313639",
"y  c #452A24",
"u  c #452D28",
"i  c #43342D",
"p  c #47372D",
"a  c #5B392D",
"s  c #433631",
"d  c #433C34",
"f  c #4C3B35",
"g  c #463938",
"h  c #4D393A",
"j  c #543935",
"k  c #58413A",
"l  c #664F3D",
"z  c #6A4A3C",
"x  c #745A39",
"c  c #594B49",
"v  c #6F4F4A",
"b  c #6D564A",
"n  c #7F5E4B",
"m  c #6C5C55",
"M  c #725658",
"N  c #5C6365",
"B  c #666B64",
"V  c #7E6C60",
"C  c #7E776D",
"Z  c #875A52",
"A  c #83665D",
"S  c #A3775A",
"D  c #836F68",
"F  c #897767",
"G  c #997665",
"H  c #9A7C72",
"J  c #A76A67",
"K  c #A57269",
"L  c #A87875",
"P  c #BA7D7C",
"I  c #9A8376",
"U  c #A9836E",
"Y  c #A38175",
"T  c #A8837B",
"R  c #B38375",
"E  c #AE937E",
"W  c #BE917E",
"Q  c #C58F75",
"!  c #CA947A",
"~  c #D2997C",
"^  c #918B8B",
"/  c #9B9493",
"(  c #A48C85",
")  c #AB9486",
"_  c #B89987",
"`  c #A29B9A",
"'  c #B99990",
"]  c #A7A29F",
"[  c #A7A1A1",
"{  c #AAA4A3",
"}  c #AEA9A6",
"|  c #AFA9A9",
" . c #B3ADAC",
".. c #B6B1AE",
"X. c #B8B3AF",
"o. c #B8AFB0",
"O. c #B7B1B1",
"+. c #BBB5B4",
"@. c #BEB9B6",
"#. c #BEB9B9",
"$. c #D68689",
"%. c #C79883",
"&. c #D79E89",
"*. c #C89C95",
"=. c #D79191",
"-. c #D99796",
";. c #E29A96",
":. c #C1A18E",
">. c #DBA284",
",. c #C7A494",
"<. c #CCAA96",
"1. c #C6AC9C",
"2. c #CAAA9A",
"3. c #D6A698",
"4. c #DFB59C",
"5. c #E7AA8A",
"6. c #E3B289",
"7. c #EAB08F",
"8. c #E7A49B",
"9. c #F4A795",
"0. c #FDA49A",
"q. c #F2A99F",
"w. c #FFAA9C",
"e. c #E8B297",
"r. c #F2B493",
"t. c #F4B896",
"y. c #FABB96",
"u. c #F4B79A",
"i. c #F3BC9C",
"p. c #FDBC9C",
"a. c #E59EA2",
"s. c #F69DA3",
"d. c #FA9EA7",
"f. c #FD9BAB",
"g. c #FE9DB0",
"h. c #DAA8A9",
"j. c #C6B0A5",
"k. c #CDB3A3",
"l. c #D8B6A7",
"z. c #DCB3AC",
"x. c #C1BBB7",
"c. c #C0B7B8",
"v. c #C2BCBB",
"b. c #D7B9B2",
"n. c #E4ACAD",
"m. c #FAA8A2",
"M. c #FFACA3",
"N. c #FDA5AB",
"B. c #FDACAC",
"V. c #E9BAA1",
"C. c #E4BAA9",
"Z. c #F5B3A6",
"A. c #FEB2A2",
"S. c #FDBDA2",
"D. c #FFB3AE",
"F. c #FFA4B4",
"G. c #E6B6B2",
"H. c #FEB4B2",
"J. c #F5BCB5",
"K. c #FCBBB3",
"L. c #FCBDBB",
"P. c #F9C093",
"I. c #FEC29C",
"U. c #C6C1BE",
"Y. c #E5C1AE",
"T. c #FEC3A3",
"R. c #FEC8A2",
"E. c #FDC5A9",
"W. c #FECAAD",
"Q. c #E5C3B3",
"!. c #ECC4B2",
"~. c #EEC6B8",
"^. c #E6CBB9",
"/. c #EACABA",
"(. c #F2C6B4",
"). c #FDC3B5",
"_. c #F5CAB6",
"`. c #FDCDB4",
"'. c #F7C5BC",
"]. c #FDC3BD",
"[. c #F5CCBA",
"{. c #FECEBC",
"}. c #ECD0B8",
"|. c #FED3B5",
" X c #F4D2BE",
".X c #FED4BD",
"XX c #F7D8BC",
"oX c #FFD9BE",
"OX c #C6C1C0",
"+X c #CAC4C3",
"@X c #CECAC6",
"#X c #CECAC9",
"$X c #D0C8C6",
"%X c #D2CDCC",
"&X c #D5D0CE",
"*X c #CEDCDC",
"=X c #D7D1D1",
"-X c #DAD5D5",
";X c #DED8D8",
":X c #FEC4C2",
">X c #FDC9C2",
",X c #FFCCC9",
"<X c #F4D4C1",
"1X c #FED5C2",
"2X c #FEDAC4",
"3X c #FEDAC9",
"4X c #E1DDDC",
"5X c white",
/* pixels */
"..} { X...@.U. ..... .@.@. ...X.X.+.@.+.v.@.#.#.#.v.#. .|  .+.#.O.+.X.@.x.x.U.x.@.c.U.#.....@.@.@.v.",
"{ ..} @.@.x.X.+.@.+.+.U.U.o y b Z n z 8 +Xv.#.c.+.+.#.c.+.O.e v V D m i U.U.x.U.v.OX+X#.X.x.v.+.+.+.",
"} @.+.x...X.} @.x...+.* l ! i.E.T.T.E.C.) d O.O.#.+.+.o.p ) Q.>XXX2X1X/.1.m @.+XOX+.+.+.+.O.+.@.o.O.",
"O.X.+.@.} X.} @.v.+.; Y T.p.y.I.p.T.T.W.2X!.F ;  .+.- D <X2X[..X1X|.|..X2X<X( ; +.#.O. . .+.@.O.+.#.",
"@.} ..+.@.x.+.X.@.* W y.p.S.T.p.p.S.E.|..X|.<X<.I H 2.1X.X.X|.2X2X{.=.=.`.1X3X' 2 +.+.U.v.+.+.v.v.v.",
"@.+.+.X.+XU.+.X.O.G I.I.I.=.=.=.=.=.E.|.1X1X3X2X>X3X1XXX<X.X1X.X<X1X1X=.=.=.XX1Xb.b.U.U.U.v.#.#.#.#.",
"@.U.X.X.@.X.X.+.a e.I.=.=.T.p.p.p.T.|..X1X1X>X2X.X.X1X.XoX1X.X>X2X<X1X.X.X=.=..XXX/.@.v.OX#.+.#.#.#.",
"X. .} X...+.U...S W.p.=.T.p.p.I.u.Q C.2X[.1X|.|.XX X.X.X.X.X.XY.%._.1X1X.X1X=..X1X_ +.+.v.OXv.OXo.O.",
"} ....+...@.X. .>.I.p.=.p.p.y.T.3.5 F 3X|.|.j.M f g M 2..X|.2XI , l..XoXoX.X=.=.oXk.@.+.#.+.+.v.#.#.",
"..@.U.U.+.X...6 e.T.y.T.T.I.T.S.8.7 Y {.oX!.p . * 6 . p [..X1XH 3 h.1X.X.X1X1X.X|.^.w +.#.v.#.v.+.+.",
"+.U.U.U.x.@.@.w t.T.p.p.I.y.S.D.M.P a.:X2Xl.* t B N t : z.1X:Xn.' F.H..X.X[..X X|./.r +.@.U.@.#.v.+X",
" .X.@.+...+.U.9 r.p.T.S.T.I.w.F.d.F.F.B..XQ.q 4 N N = r /.{.B.d.F.f.m.K..X.X1XoX1X/.8 @.+.#.v.c.#.v.",
"} x.U.@.} X.X.X.>.i.p.E.p.p.A.s.d.g.f.N.`.2XH . = & o F XX).B.g.f.N.N.K.1X.X.X1X.Xk., c.+.X.v.c.v.OX",
"..X...X...U.@...G W.y.p.S.p.A.N.N.N.N.L.{..X{.H h f I /..X1XH.F.d.N.B.L..X.X{.<X3XI v.OX+...v.v.U.OX",
"U.U.X.X...@.X...j e.I.p.T.S.p.S.A.q.].{.1X.X1X<X[.[.2X1X|..X).).K.L.>X3X.X.X1X.X^.k +.v.c.x.v.v.OXU.",
"+.X.+.@.@.+.@.@.+.G P.I.S.T.i.5.p.E.XX.X.XXX{.2X|.|..X1X1X X2XoX1X_.C.}.oX|..X2XI ] { } +.x.@.v.#.v.",
"@.O.@.@.X.U.@XU.+.# W I.I.S.%.7 Q E..X1X1X1X.X.X.X.X.X.X1X.X.X.X<X<.8 1.oX.XoX' &  .| O.X.U.X.+.+.U.",
"O.#.+.@.U.v.X.@.+. .< U P.S.R X ! E.{..X.X1X.X.X.X1X.X.X.X.X1X.X1X,.# ( 1X XE 6 +X&X+Xv.U.X.x.v.+.#.",
"+.+...X.v.X. .x...}   + z 3.A % ~ T.`..X.X.X.X.X.X.X1X.X.X1X.X.X,X2.* C j.m o #.+.#.OX#.+.X.v.U.@.+.",
"#.O.X.@.@.X.#.#.x.+.+.U.  + - * >.E.`..X.X.X.X.X.X.X=.=..X.X.X.X1X4.= 4 + #.#.+.+.+.c.c...U.@.@.x.+.",
"v.O.O.O.}  .@.O.@.x.+.x.+.} +.> 5.W.`.=..XXX.X.X.X.X.X1X=.=..X.X1XC.6 #.#.#.+.o.v.;X%X+Xv.v.v.U.x.@.",
"v.#.O.|  .O.@.+.X.U.U.X.c.@Xv.0 7.T.E.=..X.X1X.X1X.X.X.X.X=..X1XoX!.q #.+XOXv.v.+.OX-X;X&X+...+.@.@.",
"O.v.#.#.&X&Xv.+.+.......@.v.#.e r.S.T.=.=..X1X.X.X.X.X.X.X=..X.X<X(.r OX+Xv.#.v.+X| v.v.@. . .@.v.@.",
" .+.+.v.-X-XU.+.@.x.x.+Xc.@.v.u r.T.T..X=.=..X.X.X.X.X.X1X=..X.X,X'.r OXOXc.v.#.v.+XO.O.+.+.+...c.x.",
"O.#.O. .+.+.+.#.#.#X#X-X#.v.#.i i.p.p.W.1X=.1X.X.X1X.X.X1X=.=..X.X(.d +XU.+XOX+X@.@.U.c.@.v.v.v.@.x.",
"+X+.#.#.|  .v.#.#.#X*X#X#.OXv.s u.p.I.W..X=..X.X.X.X.X.X.X.X=..X.X_.d U.v.c.#.v.@.+.+.O. .O.+.#.+.+.",
"U.#Xv. .O.#.#.OXO.OXOXOX@.OX#.s u.p.p.T.|.=.1X|..X.X=..X.X.X=..X1X[.d +Xv.+.+.v.U.v.v.#.o.O.v.+Xx.@.",
"#.OXU... .#.#. .#.#.+.#.#.OX#.d u.I.p.=.`.=.1X.X.X.X=.1X.X.X=.1X.X_.d +Xv.+.+.+. ...#.v.#.v.+X=XU.@.",
"....@.x.O.#.OXO.#.#.#.#.v.v.c.i t.I.=.=.E.=.=.1X.X.X=.=..X1X=..X.X[.d @.+.+.+.+.O. .+.+.v.v.+.#.v.+.",
"x.OXv.@.#.#.O.O.O.#.v.#.c.v.v.e r.T.=.p.T.`.=..X1X.X.X=.=..X.X.X.X(.r ..O.+.+.+.O. . .#.#X%Xv.+.v.v.",
"..X.@...O.+.v.v.@.@.#.+.#.#.v.0 7.S.=.=.T.T.|.1X.X.X1X.X=..X.X.X1X(.w O.+.#.+.v.#.+.O.+.+X#X#.O...+.",
"x.@.#.#.+. .+.OX=X#.+.+.#.c.v.9 7.T.p.=.p.T.`.1X.X.X.X.X=..X.X1X1XG.w +.#.#.o.v.#.#.+.+.#.v.O.o.+.OX",
"v.+X@.X.OXOXO.+.#.#.#.#.#.v.#.= 6.y.p.I.p.p.E.|.1X<X1X.X1X=.{..X1XQ., #.#.v.+.+X%XOXOX#.#.OX#.v.OXOX",
"v.X.@.v.v.+XOXv.v. . .#.#.O.O.@.&.).E.p.p.p.p.`..X{.`.oX.X{.1X XoXl.c.@.+.#.v.%X+X%X#XOXv.OXv.#.@.#.",
"v.X.X.@.v.+XOX#.#.+.#.#.+.....O.Q S.y.T.I.I.T.R.|.|.oX2X2X<X1X2X2X_ #.#.#.v.o.+.+.OX#.OXOX#X%Xv.#.v.",
"X.@.X. .O. .O.v.#.v.OX#.+.+.+...x V.&.%.%.! 7.y.i.:.,.' ,.<.:.<.^.V +.+.o.#.o.| [ { | v.#.v.OXv.OXU.",
"X.v.&X@XU.X.#.OXv.X.X.@.@.@.+.+.1 i # . @ - G ).D : $ $ $ $ = $ f 1 OXOXc.OX#. .[ ^ / | #.#X#.O.U.v.",
"U.v.@.} v.v.#.#XU.@.U.U.U.@.@.U.  3 Z J K K G.:Xn.T Y T T H H A 2   OXv.o.#.v.v.v.+.v.c.#.OXOXOXU.#.",
"U.v...] U.U.v.+X@.X.x.x.X.X.X.@.X L M.w.M.K.:X].).:X'.L.].:X,X>X( O v.v.+.#.#.#.+XOXc.v.OX%X*X%X+...",
"@.@.@X@.+. .v.U.U.X...@.x.@.+.@.< -.0.M.m.L.:X].:X:X:X>XL.>X:X:Xz.2 OXOX#.#.v.v.v.#.+.+X;X4X;X+X+Xv.",
"#.c.+.+.v.o.+.c.U.+.#.@.v.U.v.U., ;.M.0.N.L.:X:XL.:X:X:X].].].:Xn.3 +X%XOX#.| / ` +XOXOX-X%Xv.#.v.#.",
"OX+.OXOXO.{ o.+.@.@.c.@.X.@.+.U.; =.0.9.D.K.:X>X:X,XL.:X>X].:X,Xh.& c.v.v.OXo.` | #.v.OX+XOXOX+.+.#.",
"%XOX#.O.+.o.| | @.OXv.@...X.+.@.o P m.S.9.H.:X'.>XL.:X,X:X:X>XJ.' . #XOX+.O.#.OXOXOX+X+XOXOXv.v.v.c.",
"OX+X#.#.+X+X+X+X#.OXc.v.X.@.@.+.  v N.0.Z.D.].:XL.,XL.L.:X].>X].M   O.c.OXOXOXOX+X#X#XOX+Xv.O.O.#.@.",
"+XOXO.+X+XOX#Xv.#.v.v.OX@.X.X... .< $.B.M.m.).:X:X].>X:X].:X'.3.1 OXv.v.#. .| o.#X+X#XOX+XOXo.O.X.@.",
"O.O.[ #.OXv.+XO.v.v.v.v.+. ...+.v.@.j ;.D.D.L.].*.*.J.:XL.>XG.k OXc.+.x.c. .O.#.OX#.v.OXv.+XOX#.@.x.",
"O.v.+.+.#.#.+.#.OX#.OXv.#. .X.v.+XX.v.c.-.Z.B.).j j >X:X>Xb.c v.v.x.5X+.O.O.o.v.o.O.c.O.#.v.v.#.+.X.",
"OXo.+.c.o.+. .+.v.#.@XOX+X@.+.*X5X*X*X5Xy K s.Z.h h ~.G.P 5X5X5X*X*X5X*X*Xo.c.#.#.OXOXv.OX#.c.v.OX$X",
"o.O.+.O.+.#.v.#.#.O.O.v.#.*X*X*X5X*X*X5X5X5X9 c & 1 c w 5X5X*X*X*X*X5X*X*X+X+Xv.x.OX@X#XOXOXU.x.+XOX",
"c.+.c.+.v.#.OXv.#.#.+.v.*X*X5X*X5X5X*X5X5X*X5X5X5X*X*X5X*X5X*X5X5X*X5X*X5X*Xx...@.c.U.#XU.#.v.@.c.@."
};
