/* XPM */
static char *sellino[] = {
/* columns rows colors chars-per-pixel */
"50 50 216 2 ",
"   c #020101",
".  c #0D0904",
"X  c #0D0D09",
"o  c #120A03",
"O  c #190C02",
"+  c #10050B",
"@  c #130C0E",
"#  c #190D0A",
"$  c #0B1206",
"%  c #1D130D",
"&  c #140D12",
"*  c #0E1712",
"=  c #191515",
"-  c #1E1A11",
";  c #1C1C1D",
":  c #22150C",
">  c #26180E",
",  c #221512",
"<  c #2B1612",
"1  c #241D14",
"2  c #2B1A13",
"3  c #221B19",
"4  c #2C1D1A",
"5  c #341B1A",
"6  c #1D2017",
"7  c #202308",
"8  c #252316",
"9  c #25221C",
"0  c #392414",
"q  c #35251D",
"w  c #182422",
"e  c #2D2422",
"r  c #372724",
"t  c #342C24",
"y  c #342B28",
"u  c #3C2E29",
"i  c #3C332B",
"p  c #313639",
"a  c #452A24",
"s  c #462C28",
"d  c #43342D",
"f  c #47372D",
"g  c #5B392D",
"h  c #433631",
"j  c #433C34",
"k  c #4C3B35",
"l  c #463938",
"z  c #4D393A",
"x  c #543935",
"c  c #613F3D",
"v  c #58413A",
"b  c #664F3D",
"n  c #6A4A3C",
"m  c #745A39",
"M  c #594B49",
"N  c #6F4F4A",
"B  c #6D564A",
"V  c #7F5E4B",
"C  c #6C5C55",
"Z  c #725658",
"A  c #7C6A5E",
"S  c #5C6365",
"D  c #666B64",
"F  c #7E6C60",
"G  c #7E776D",
"H  c #875A52",
"J  c #83665D",
"K  c #A3775A",
"L  c #836F68",
"P  c #897767",
"I  c #997665",
"U  c #957E76",
"Y  c #9A7C72",
"T  c #A76A67",
"R  c #A57269",
"E  c #A87875",
"W  c #BA7D7C",
"Q  c #93806F",
"!  c #9A8376",
"~  c #A9836E",
"^  c #A38175",
"/  c #A8837B",
"(  c #B38375",
")  c #AE937E",
"_  c #BE917E",
"`  c #C58F75",
"'  c #C1927E",
"]  c #CA947A",
"[  c #D2997C",
"{  c #918B8B",
"}  c #9B9493",
"|  c #A48C85",
" . c #AB9486",
".. c #B89987",
"X. c #A29B9A",
"o. c #B99990",
"O. c #A7A29F",
"+. c #A7A1A1",
"@. c #ABA5A3",
"#. c #AEA9A6",
"$. c #AFA9A9",
"%. c #B3ADAC",
"&. c #B6B1AE",
"*. c #B8B3AF",
"=. c #B8AFB0",
"-. c #B7B1B1",
";. c #BBB5B4",
":. c #BEB9B6",
">. c #BEB9B9",
",. c #D68689",
"<. c #C79883",
"1. c #D79E89",
"2. c #C89C95",
"3. c #D99796",
"4. c #E29A96",
"5. c #F7999A",
"6. c #C1A18E",
"7. c #DBA284",
"8. c #C7A494",
"9. c #C8A591",
"0. c #CCAA96",
"q. c #C6AC9C",
"w. c #CCAD9E",
"e. c #D6A698",
"r. c #DFB59C",
"t. c #E7AA8A",
"y. c #E3B289",
"u. c #EAB08F",
"i. c #E7A49B",
"p. c #F4A795",
"a. c #FDA49A",
"s. c #F2A99F",
"d. c #FFAA9C",
"f. c #E8B297",
"g. c #F2B493",
"h. c #F4B896",
"j. c #FABB96",
"k. c #F4B79A",
"l. c #F3BC9C",
"z. c #FDBD9C",
"x. c #F69DA3",
"c. c #FA9EA7",
"v. c #FD9BAB",
"b. c #FE9DB0",
"n. c #DAA8A9",
"m. c #C6B0A5",
"M. c #CDB3A3",
"N. c #D8B6A7",
"B. c #DCB3AC",
"V. c #C1BBB7",
"C. c #C0B7B8",
"Z. c #C2BCBB",
"A. c #D7B9B2",
"S. c #E4ACAD",
"D. c #FAA8A2",
"F. c #FFACA3",
"G. c #FDA5AB",
"H. c #FDACAC",
"J. c #E9BAA1",
"K. c #E4BAA9",
"L. c #F5B6A5",
"P. c #FEB2A2",
"I. c #FDBDA2",
"U. c #FFB3AE",
"Y. c #FFA4B4",
"T. c #E6B6B2",
"R. c #FEB4B2",
"E. c #F5BCB5",
"W. c #FCBBB3",
"Q. c #FCBDBB",
"!. c #F9C093",
"~. c #FEC29C",
"^. c #C6C1BE",
"/. c #E5C1AE",
"(. c #FEC2A3",
"). c #FEC8A2",
"_. c #FDC5A9",
"`. c #FECAAD",
"'. c #E5C3B3",
"]. c #ECC4B2",
"[. c #EEC6B8",
"{. c #E6CBB9",
"}. c #EACABA",
"|. c #F2C6B4",
" X c #FDC3B5",
".X c #F5CAB6",
"XX c #FDCDB4",
"oX c #F7C5BC",
"OX c #FDC3BD",
"+X c #F5CCBA",
"@X c #FECEBC",
"#X c #ECD0B8",
"$X c #FED3B5",
"%X c #F4D2BE",
"&X c #FED4BD",
"*X c #F7D8BC",
"=X c #FFD9BE",
"-X c #C6C1C0",
";X c #CAC4C3",
":X c #CECAC6",
">X c #CEC9C9",
",X c #D0C8C6",
"<X c #D2CDCC",
"1X c #D5D0CE",
"2X c #D7D1D1",
"3X c #DAD5D5",
"4X c #DCD8D7",
"5X c #DED8D8",
"6X c #FEC4C2",
"7X c #FDC9C2",
"8X c #FFCCC9",
"9X c #F4D4C1",
"0X c #FED5C2",
"qX c #FEDAC4",
"wX c #FEDAC9",
"eX c #E1DDDC",
/* pixels */
"&.#.@.*.&.:.^.%.&.&.%.:.V.#.%.*.&.;.:.;.^.;.;.>.>.Z.:.%.$.%.;.;.;.;.*.:.:.V.;XV.;.>.-X>.&.*.;.;.:.V.",
"@.&.#.:.:.V.*.;.:.;.;.^.^.O a B V H b q ;XV.>.>.;.;.:.C.:.=.u N F F C f ^.^.V.V.Z.-X;X>.-.:.^.;.;.>.",
"#.:.;.V.%.&.#.:.V.&.;.% b _ !._.(.(._.K. .k ;.-.>.>.;.-.j  .'.7X&X0X0X[.q.C :.;X-X>.-.>.;.*.;.>.&.-.",
"*.&.;.:.#.&.%.:.V.;.> ^ _.~.~.~.z.(.I.`.qX'.P < %.;.% L %XqX+X&X&X&X$X$XwX%X .> -.;.-.%.&.:.;.-.;.>.",
";.%.&.;.:.^.*.*.>., _ ~.z.I.(.j.z.I._.$X$X&X%X0.! Y w.0X&X&X&X=XwXXX&X&XXX0XwXo.9 :.;.^.^.-.;.Z.Z.Z.",
":.;.*.*.^.^.*.;.-.I ~.~.~.L._.z.~.(._.$X0X@XwX0X0XwX&X&X0X&X0X&X9X0X0X&X&X&X&X0XA.A.^.^.^.^.>.;.>.>.",
":.^.;.*.:.*.;.;.g f.~.j.j.(.I.I.z.(.$X&X0X0X+X0X&X@X0X&X*X0X&X@X0X0X0X&X&X0X&X&X&X#X;.V.-X>.-.>.>.>.",
"*.%.#.*.&.:.V.&.K `.z.I.(.j.j.~.l.` J.wX9X0X&X$X%X%X&X&X&X0X0XK.6.|.0X0X&X&X&X&X0X..;.;.Z.-X-X-X-.-.",
"#.&.&.;.&.:.&.&.7.(.z.~.z.~.j.).e.7 P wX&X$Xm.Z k l C w.&X$XqXU 8 N.&X=X*X&X@X&X=XM.:.;.>.-.>.Z.>.>.",
"&.:.^.^.:.&.%.9 f.~.z.I.I.~.~.I.4.0 ^ @X=X].f X - 9 + f +X&XwXY 5 n.wX@X$X0XwX&X&X{.y ;.^.V.>.Z.-.>.",
":.V.^.^.V.:.:.y h.).z.l.(.j.z.U.H.W S. X0XN.> p D S p , N.0XOXi.o.Y.R.0X0X+X&X*X$X}.i ;.;.^.>.>.Z.-X",
"%.*.V.;.&.;.^.e g.z.(.I.~.~.F.Y.c.Y.Y.H.&X/.q w S S 6 i }.7XH.G.Y.v.D.W.&X&X0X&X&X}.q :.;.>.C.>.Z.Z.",
"#.V.^.V.#.&.&.*.7.l.I._.z.z.P.x.c.Y.v.G.XXwXI . = ; o P 0X XH.b.v.Y.G.W.0X&X&X0X&XM., V.-.*.Z.Z.Z.-X",
"&.*.&.*.&.^.:.&.I `.j.z.I.j.P.H.G.G.G.R.@X&X@XU z x Q }.&X0XR.Y.c.G.H.W.&X&X@X0XwX! V.-X:.&.Z.Z.^.-X",
"^.V.;.*.&.:.*.&.g r.~.j._.z.I.P.F.s.@X7X0X=X&X&X9X+XwX&X&X0XXX XW.W.@X0X&X&X&X%X{.v :.V.V.:.Z.^.^.;X",
":.*.;.:.:.:.:.:.;.I ~.j.z._.l.t.j.`.*X&X%X&X@X*X$X&X0XXXwX$XqX&X0X.XK.%X*X&X&XwX! O.@.%.;.C.:.V.>.V.",
":.-.:.:.*.^.:X^.;.% _ ~.~.z.<.q ] _.&X0X0X0X&X&X&X&X&X0X&X&X&X0X9X0.q o.qX&X&Xo.= %.$.-.*.V.;.*.;.^.",
"-.>.;.:.^.Z.*.:.;.%.2 ~ l.z.( X ] I.&X&X&X0X&X&X0X&X&X&X&X&X&X&X0X8.% ) wX9X) 8 ;X2X;XZ.^.*.:.^.;.>.",
";.>.&.&.Z.*.&.:.*.#.  O n e.J * [ _.XX&X&X&X&X&X&X&X&X&X&X&X&X&XwXe.% G m.C o >.>.>.-X>.*.;.^.^.:.;.",
">.%.*.:.:.*.:.>.V.;.C.^.  # : - 7.`.XX&X&X&X&X&X&X&X0X&X&X&X0X&X0XN.; 6 # >.:.;.;.-.C.>.&.^.:.;.C.;.",
"Z.-.-.-.$.%.:.*.;.V.:.V.;.#.*.< t.(.`.&X&X&X&X0X0X&X&X&X&X&X&X&X&XK.9 >.>.Z.;.-.Z.5X1X;XZ.>.^.^.:.:.",
"Z.>.-.$.%.-.;.:.:.V.^.*.:.:X^.r u.(._.&X&X&X&X0X&X&X&X0X&X0X&X&X=X].t >.;X-X>.Z.;.-X3X5X2X;.*.;.V.:.",
"-.Z.>.>.<X<XZ.;.;.&.&.&.:.Z.>.u g.I._.$X&X&X&X&X&X&X&X&X0X&X0X&X&X[.i -X;XZ.>.Z.;X%.>.Z.:.%.%.;.^.:.",
"%.;.;.Z.4X4X-X;.:.:.V.;XC.:.^.s g.(.(.&X&X&X&X&X&X&X&X&X&X&X&X&X8XoXi -X-X>.Z.>.Z.-X=.-.;.;.;.*.C.C.",
"-.Z.-.%.-.;.-.>.>.;X<X3XZ.Z.>.d l.z.j.`.0X9X&X&X&X0X0X&X&X&X0X&X&X|.j ^.-X:X-X-XV.;.^.V.:.V.Z.C.:.:.",
";X-.>.>.$.-.-X>.>.>X<X1X>.-XC.h k.I.z.`.&X0X&X&X&X&X&X&X&X&X&X&X&X.Xj ^.Z.C.>.Z.:.;.;.-.%.-.;.>.*.;.",
"^.>XZ.%.-.>.>.Z.;.-X-X-X>.Z.Z.j k.I.z.).@X0X0X&X&X0X&X=X&X&X&X&X0X+Xv ;XZ.;.;.>.-XV.Z.>.-.;.Z.;X^.;.",
">.;X^.&.-.>.;.-.>.>.;.>.Z.-X>.p l.~.z.(.`.&X0X&X&X&X&X&X&X&X0X&X0X#Xi ;XZ.;.;.>.%.-.>.Z.>.Z.;X2X^.:.",
"*.&.>.:.-.>.-X-.>.>.>.>.Z.-XC.h g.~.z.z.`.XX0X&X0X&X&X&X&X&X&X&X0X.Xh :.;.;.;.;.-.%.-.>.Z.C.;.>.V.;.",
":.^.^.:.>.>.-.-.-.>.>.>.C.Z.C.u g.~.(.z.(.XX&X&X&X&X&X&X0X&X0X&X&X|.i &.=.;.;.;.-.%.%.>.>X<XZ.>.^.^.",
"&.;.:.*.-.;.>.Z.>.>.>.;.;.>.Z.r u.~.z.z.~.).&X0X&X&X&X0X&X0X&X&X0X|.y -.;.>.;.Z.>.;.-.>.;X>X>.-.%.;.",
":.:.:.:.;.%.;.-X1XZ.-.;.>.Z.Z.e u.I.~.z.z.(.XX0X&X&X&X&X&X&X&X&X0XK.y >.>.>.-.Z.>.>.;.-.Z.Z.-.-.-.-X",
"V.;X:.*.;X-X-.>.>.>.>.;.>.Z.>.; y.j.z.(.z.z.(.&X&X0X0X$X0X&X@X0XqXT.6 >.>.Z.>.>X>X-XZ.>.Z.-X>.>.;X-X",
"V.:.V.:.>.;X;X>.Z.%.-.>.>.-.&.:.1. XI.z.z.z.I.XX&X&X+X&X$X@X0X$X0XN.V.:.;.Z.>.>X;X<X<X;XZ.-X-X>.>.>.",
":.*.:.;.>.;X-X>.>.;.>.>.;.&.&.&.` I.z.).~.~.).).$X&X0XqXwX0X0XwXqX..>.>.;.Z.;.-.;.Z.Z.Z.-X;X<XZ.>.>.",
":.:.:.#.-.%.-.Z.>.Z.-X>.;.:.;.&.m J.1.<.' ] u.j.f.6.9.6.8.9.6.0.{.A >.;.-.>.-.$.@.+.%.>.Z.Z.-XZ.-X-X",
"&.:.1X:X;X;.>.-XV.&.*.V.:.:.*.;.1 d % . $ : R  XP , @ & & & = = k 3 -X-XC.-X>.%.+.{ } $.Z.;XZ.-.^.V.",
"^.V.:.#.Z.:.>.>X^.:.^.^.^.:.V.^.  5 H T R E T.6XK.E ^ / / Y ! J 4   -XC.=.>.Z.Z.Z.;.Z.>.>.-X-X-X^.>.",
";X:.&.O.-X-XZ.;X:.;.V.:.*.&.*.:.X E F.d.F.E.6XoXQ.6X6XoX6X6X8X7X| o -XZ.>.>.>.>.;X-XZ.Z.-X<X2X<X;.&.",
":.:.:X:.-.%.Z.-X^.*.&.:.V.:.:.:.< 3.a.F.s.W.6X6X6X6X6X6XQ.6X6X6XB.4 -X-X>.>.>.Z.Z.>.-.;X4XeX4X>X;XV.",
"C.C.;.>.Z.=.;.>.Z.;.>.:.V.^.>.^.1 4.F.a.D.Q.6XQ.Q.6X6XQ. X6X6XOXS.e ;X>X-X>.=.} X.;X-X-X3X<X-X-.Z.Z.",
";X;.Z.Z.;.+.=.;.C.C.>.:.;.:.;.^.: 3.a.p.U.Q.6X6X6X8XQ.8X8XOXOX8Xn., >.Z.Z.>.=.X.$.Z.>.-X;X-X-X>.;.>.",
">X-X>.-.;.%.$.$.C.^.C.:.&.*.:.:.o W F.P.p.R.6XoX8XQ.Q.8XQ.6X7XQ.o.+ ;X-X>.-.C.Z.Z.-X;X>X-X-X>.-XV.Z.",
"-X;XZ.>.;X;X;X;XV.;XV.Z.*.:.:.;.  N G.d.L.U.OX6XQ.6X6XQ.6X6X6X7XZ   =.>.-X;X-X;X-X>X>X;X;X>.=.-.:.:.",
";X-X-.>X;X-X>XZ.>.Z.Z.-X:.;.*.&.%.2 ,.H.P.D.OXOX6X6X6XOXQ.6X7Xe.3 Z.Z.Z.>.$.$.-.;X;X>X-X;X-X-.=.*.C.",
"-.=.+.>.-X-X-X;.C.Z.Z.Z.;.#.&.;.V.:.x 4.H.U.W.OX8.2.E.6X6X6XA.x Z.Z.V.C.C.-.-.Z.-XC.-X>.-X;X-X>.:.C.",
"=.Z.-.>.>.>.-.>.-XZ.;XZ.>.%.*.^.;X;.V.c 3.U.H.OXx x 8XOX6XA.M >.Z.Z.V.*.-.-.-.Z.-.-.>.>.>.-X>.>.;.-.",
"-X=.=.>.=.;.%.;.Z.>.;X-X;X:.;.:.;.^.^.-.a R 5.L.l l 7XT.W s >.=.&.Z.^.Z.-.-.C.C.>.-X-X>.-X>.-.-X-X,X",
"-.-.C.-.;.>.Z.>.>.-.-.>.>.-X>.-.>.-XZ.>.Z.;Xe M ; 9 M y Z.>.>.>.%.&.#.:.;X;X;XV.V.-X;X>X-X;X;XV.;X^.",
"-.C.>.;.Z.>.Z.Z.>.Z.>.Z.-.>.>.>.>.-XZ.>.>.-X-XZ.-X>.-X-X;X-XZ.Z.O.%.%.^.,X>XV.&.:.Z.-X>X^.>.V.:.>.:."
};
