/* XPM */
static char *venoso[] = {
/* columns rows colors chars-per-pixel */
"50 50 217 2 ",
"   c #020101",
".  c #0D0904",
"X  c #0D0D09",
"o  c #120A03",
"O  c #190C02",
"+  c #10050B",
"@  c #130C0E",
"#  c #190D0A",
"$  c #1D130D",
"%  c #140D12",
"&  c #0E1712",
"*  c #191515",
"=  c #1E1A11",
"-  c #1C1C1D",
";  c #22150C",
":  c #26180E",
">  c #221512",
",  c #2B1612",
"<  c #241D14",
"1  c #2B1A13",
"2  c #2C1D1A",
"3  c #341B1A",
"4  c #1D2017",
"5  c #202308",
"6  c #252316",
"7  c #25221C",
"8  c #392414",
"9  c #35251D",
"0  c #182422",
"q  c #2D2422",
"w  c #372724",
"e  c #342C24",
"r  c #342B28",
"t  c #3C2E29",
"y  c #3C332B",
"u  c #313639",
"i  c #452A24",
"p  c #462C28",
"a  c #43342D",
"s  c #47372D",
"d  c #5B392D",
"f  c #433631",
"g  c #433C34",
"h  c #4C3B35",
"j  c #463938",
"k  c #4D393A",
"l  c #543935",
"z  c #613F3D",
"x  c #58413A",
"c  c #664F3D",
"v  c #6A4A3C",
"b  c #745A39",
"n  c #594B49",
"m  c #6F4F4A",
"M  c #6D564A",
"N  c #7F5E4B",
"B  c #6C5C55",
"V  c #725658",
"C  c #5B615F",
"Z  c #7C6A5E",
"A  c #5C6365",
"S  c #666B64",
"D  c #7E6C60",
"F  c #7E776D",
"G  c #875A52",
"H  c #83665D",
"J  c #A3775A",
"K  c #836F68",
"L  c #897767",
"P  c #997665",
"I  c #957E76",
"U  c #9A7C72",
"Y  c #A76A67",
"T  c #A57269",
"R  c #A17D74",
"E  c #A87875",
"W  c #BA7D7C",
"Q  c #9A8376",
"!  c #A9836E",
"~  c #A8837B",
"^  c #B38375",
"/  c #AE937E",
"(  c #BE917E",
")  c #C58F75",
"_  c #C1927E",
"`  c #CA947A",
"'  c #D2997C",
"]  c #918B8B",
"[  c #9B9493",
"{  c #A48C85",
"}  c #AB9486",
"|  c #B89987",
" . c #A29B9A",
".. c #B99990",
"X. c #A7A29F",
"o. c #A7A1A1",
"O. c #ABA5A3",
"+. c #AEA9A6",
"@. c #AFA9A9",
"#. c #B3ADAC",
"$. c #B6B1AE",
"%. c #B8B3AF",
"&. c #B8AFB0",
"*. c #B7B1B1",
"=. c #BBB5B4",
"-. c #BEB9B6",
";. c #BEB9B9",
":. c #C2848F",
">. c #D68689",
",. c #C79883",
"<. c #D79E89",
"1. c #C89C95",
"2. c #D79191",
"3. c #D99796",
"4. c #E29A96",
"5. c #F7999A",
"6. c #C1A18E",
"7. c #DBA284",
"8. c #C7A494",
"9. c #C8A591",
"0. c #CCAA96",
"q. c #C6AC9C",
"w. c #CCAD9E",
"e. c #D6A698",
"r. c #DFB59C",
"t. c #E7AA8A",
"y. c #E3B289",
"u. c #EAB08F",
"i. c #E7A49B",
"p. c #F4A795",
"a. c #FDA49A",
"s. c #F2A99F",
"d. c #FFAA9C",
"f. c #E8B297",
"g. c #F2B493",
"h. c #F4B896",
"j. c #FABB96",
"k. c #F4B79A",
"l. c #F3BC9C",
"z. c #FDBC9C",
"x. c #E59EA2",
"c. c #F69DA3",
"v. c #FA9EA7",
"b. c #FD9BAB",
"n. c #FE9DB0",
"m. c #DAA8A9",
"M. c #C6B0A5",
"N. c #CDB3A3",
"B. c #D8B6A7",
"V. c #DCB3AC",
"C. c #C1BBB7",
"Z. c #C0B7B8",
"A. c #C2BCBB",
"S. c #D7B9B2",
"D. c #E4ACAD",
"F. c #FAA8A2",
"G. c #FFACA3",
"H. c #FDA5AB",
"J. c #FDACAC",
"K. c #E9BAA1",
"L. c #E4BAA9",
"P. c #F5B3A6",
"I. c #FEB2A2",
"U. c #FDBDA2",
"Y. c #FFB3AE",
"T. c #FFA4B4",
"R. c #FBACB3",
"E. c #E6B6B2",
"W. c #FEB4B2",
"Q. c #F5BCB5",
"!. c #FCBBB3",
"~. c #FCBDBB",
"^. c #F9C093",
"/. c #FEC29C",
"(. c #C6C1BE",
"). c #E5C1AE",
"_. c #FEC3A3",
"`. c #FDC5A9",
"'. c #FECAAD",
"]. c #E5C3B3",
"[. c #ECC4B2",
"{. c #EEC6B8",
"}. c #E6CBB9",
"|. c #EACABA",
" X c #F2C6B4",
".X c #FDC3B5",
"XX c #F5CAB6",
"oX c #FDCDB4",
"OX c #F7C5BC",
"+X c #FDC3BD",
"@X c #F5CCBA",
"#X c #FECEBC",
"$X c #ECD0B8",
"%X c #FED3B5",
"&X c #F4D2BE",
"*X c #FED4BD",
"=X c #F7D8BC",
"-X c #FFD9BE",
";X c #C6C1C0",
":X c #CAC4C3",
">X c #CECAC6",
",X c #CEC9C9",
"<X c #D0C8C6",
"1X c #D2CDCC",
"2X c #D5D0CE",
"3X c #D7D1D1",
"4X c #DAD5D5",
"5X c #DCD8D7",
"6X c #DED8D8",
"7X c #FEC4C2",
"8X c #FDC9C2",
"9X c #FFCCC9",
"0X c #F4D4C1",
"qX c #FED5C2",
"wX c #FEDAC4",
"eX c #FEDAC9",
"rX c #E1DDDC",
/* pixels */
"$.+.O.%.$.-.(.#.%.$.#.-.-.#.$.%.%.=.-.=.(.=.=.-.;.A.;.#.@.#.*.;.=.=.%.=.;.(.(.-.-.;.(.;.$.$.-.=.;.C.",
"O.$.+.-.-.C.%.=.-.=.=.(.(.O i M G N v 9 ;X-.-.;.*.;.;.Z.;.*.t m D Z B s (.(.;.(.(.;X;X;.=.-.C.=.=.;.",
"+.-.=.C.#.$.+.-.C.*.*.* c _ l._._._.`.L.} x *.*.-.;.=.*.s } ].8X*XqX-X|.q.B -.;X;X=.=.=.=.%.=.-.*.*.",
"%.$.=.-.+.$.#.-.C.=.: ! `.j././.z._._.'.wX].L , #.=.$ K 0XeXoX=X*X*X%X*XwX$X} , =.;.*.#.#.-.=.*.=.;.",
"=.#.$.=.-.(.%.%.-.= ( /./.U._.z.l.U.`.%X%X*X&X0.Q U w.0X*X*X*XwXeX#X2.2.oXqXeX..2 =.=.(.(.=.=.A.A.A.",
"-.=.%.%.(.(.%.=.*.P /././.2.2.2.2.2.`.%X*X8XeXwXqXeX*X*X0X*X-X#X0XqXqX2.2.2.*XqXS.S.(.(.;XA.;.;.;.;.",
"-.(.=.%.-.%.=.=.d f./.2.2._.z.z.z._.%X*XqXqX@XqX#X#XqX*X*XqX#XqXwXqXqX*X&X2.2.*X*X}.=.C.;X;.=.;.;.;.",
"%.#.+.%.$.-.C.$.J '.z.2.U.z.z./.z.) K.eX&XqX-X%X&X*X*X-X*XqX*XL.,.@X*XqX*X*X2.-XwX| =.=.A.;XA.;X*.*.",
"+.$.$.=.$.-.$.$.7._.z.2.z.z.j._.e.5 L eX%X%XN.V g j B w.*X*X0XI 6 B.=X-X-X*X2.2.-XN.-.=.;.*.=.A.;.A.",
"$.-.(.(.-.$.#.7 f./.j._._./._.U.4.8 Q #X-X[.s + = q + s @X-XqXR 3 V.eX%X&XqXqX-X*X}.r =.(.A.;.A.*.;.",
"-.C.(.(.C.-.-.r h._.z.l._.j.U.Y.G.^ x.8XwXB.= u S C u > V.qX+Xi.:.R.!.#X-X#X*X&X%X|.y =.-.(.;.;.A.;X",
"#.%.C.=.$.=.(.q g.z._.U././.d.T.b.T.T.J.*X).9 0 A A 4 y }.#XR.H.T.b.c..X#X*XqX*X-X|.9 -.=.-.Z.;.;.A.",
"+.C.(.C.+.$.$.%.7.l.z.`.z.z.I.c.b.n.n.H.oXeXP . - * o L -X.XR.n.b.T.H.!.qX-X*XqX*XN.> A.*.%.A.A.A.;X",
"$.%.$.%.$.(.-.$.P '.j.z.U.z.I.J.J.H.H.!.#X*X#XI k h U $X-X#XW.T.v.H.J.!.*X#X#XqXeXU Z.(.-.$.A.A.(.;X",
"(.C.=.%.$.-.%.$.d r./.z._.U.l.I.G.s.+X8XqX-X#X=X0X@XeX-X*X-X.X.X!.!.+XeX*X*X-X&X}.x -.C.C.C.A.;X(.:X",
"-.%.=.-.-.-.-.-.=.P /.^.U._.z.t.z.`.=X-X*X-X#X&X%X*X*X#XqX&X-X-X-XXXL.@X=X*X*XeXQ X.O.#.=.Z.-.C.Z.C.",
";.*.-.-.%.(.>X(.=.$ ( /./.z.,.9 ` `.*XqXqXqX*X*X*X*X*X*X*XqX*X*X0X8.9 q.wX*X-X..* #.#.*.%.C.=.=.=.(.",
"*.-.=.-.(.A.%.-.=.#.1 ! l.z.^ X ` _.#X*X*XqX*X*X*X*XqX*X*X*X*X*XwX8.$ { eX@X/ 6 ;X3X:XA.(.$.C.C.=.;.",
"=.-.$.$.A.%.$.-.%.+.  O v e.H & ' `.oX*X*X*X*XqX*X*X*X*X*X*X*X*XqXe.$ F M.B o -.;.;.;X;.=.=.A.(.-.=.",
";.#.%.-.-.%.;.;.C.=.Z.(.  # ; = 7.`.oX*X*X*X*X*XqX*X2.2.*X*X*XqXqXB.- 4 # Z.-.=.*.*.Z.;.$.(.C.-.C.=.",
";X*.*.*.+.#.-.%.=.C.-.C.=.+.%., t.`.'.2.-X*X*X*X*X*X*X*X2.2.*X*X-XL.7 -.;.A.=.*.;X6X1X:XA.Z.C.(.-.-.",
"A.;.*.@.#.*.=.-.-.C.(.%.;.>X(.w u._.`.2.*X*X*XqX*XqX*X*XqX2.*X*XwX[.e ;.:X;XZ.A.*.;X4X6X1X-.%.=.-.C.",
"=.A.=.;.1X1XA.=.=.$.$.$.-.A.-.a g./.`.2.2.*XqX*X*X*XqX*X*X2.*XqXqX[.y ;X:XA.;.A.:X@.A.A.-.#.@.-.Z.-.",
"#.*.;.A.5X5X;X=.-.-.C.:XZ.-.A.p g._.`.%X2.2.*X*X*XqX*X*X*X2.*X*X9XOXy ;X;XZ.A.Z.;X;X*.*.-.=.=.%.Z.C.",
"*.;.*.#.*.;.*.;.;.:X1X5XA.A.Z.a k.z./.'.qX2.*X*X*X*X*X*X*X2.2.*X*X Xg (.;X:X;X:X-.-.C.;.-.C.A.A.-.C.",
":X*.;.-.@.*.A.;.;.,X1X1X;.;XZ.f k./.z.`.*X2.*X*X*X*XqX*X-X*X2.qXqXXXg ;XA.Z.;.A.-.=.-.*.#.*.=.;.=.-.",
"(.,XA.#.*.;.;.;X=.;X;X;X;.;X;.g k._.z._.oX2.-X*XqX*X2.*X*X*X2.*X-XXXg :XA.-.*.A.A.A.;X;.*.*.A.:X-.-.",
"-.:X(.$.#.;.=.*.;.;.=.;.;.;X;.u k./.z.2.oX2.qX&X*X*X2.*XqX*X2.*X-X@Xg :XA.*.;.=.#.*.;.;.A.A.:X3X(.-.",
"%.$.-.-.=.;.;X=.;.;.;.A.;XA.;.a g./.2.2.'.2.2.*X*XqX2.2.*X*X2.*XqXXXf -.=.=.=.*.*.*.*.;.A.Z.=.;.A.-.",
"-.:XA.-.;.=.*.*.*.;.;.;.;.A.Z.y g._.2.z.`.'.2.-X*X*X*X2.2.*X*X*X*X Xy $.&.=.=.;.*.#.#.;.,X1XA.;.A.C.",
"$.=.-.*.*.*.;.A.-.-.;.;.=.;.;.w u.U.2.2.z.`.#XqX*X*X*X*X2.*XqX*X*X Xr *.=.;.*.A.A.*.*.*.:X,X;.*.*.=.",
"-.-.;.A.*.*.=.;X3X;.*.*.;.A.C.w u._.z.2.z._.oX*XqX*X*XqX2.*X*X*XqX[.w ;.;.;.*.A.;.;.;.*.A.A.*.*.*.;X",
"-.(.-.%.;X:X*.;.;.;.;.;.=.A.;.- y.j.z.z.z.z._.%XqXqXwX&X*X2.#X-XqXE.< ;.A.A.=.:X1X;X;X;.;.;X;.;.;X:X",
"A.-.C.C.;.:X;XA.A.#.#.;.;.=.$.-.<..X`.z./.z.U.oX-X#XoX*X*X#XqX&X-XB.A.=.*.;.A.1X:X1X1X;X;.;X;X;.;.;.",
"-.%.-.-.;.:X;X;.;.=.;.;.=.$.#.=.) U.z._./.j._.`.%X%X-XwXeX*XwXwXwX| ;.;.;.A.*.*.=.A.;.;X;X:X1X;X;.C.",
"-.-.%.+.*.*.*.;.;.A.;X;.%.-.=.$.b K.<.,.,.` u.^.l.6.9...0.8.6.0.}.D =.=.*.A.*.@.O.O.#.;.A.A.;X;.;X;X",
"%.A.2X>X(.=.-.;XC.$.=.C.-.-.=.=.< a $ . X ; P .XK > % @ % % - % x - ;X;XZ.A.;.#.o.] [ @.Z.:XA.*.(.C.",
"(.-.-.+.A.A.;.,X(.=.(.(.(.-.-.(.  3 G Y T E E.7XD.~ U ~ ~ U U H 1   ;XZ.*.;.A.A.A.=.A.;.;.:X;X:X(.;.",
":X-.$.X.(.;XA.:X-.=.-.-.%.%.%.C.X E G.d.G.!.8X~..X8X+X+X8X7X9X7X{ + A.;X;.;.;.;.;X;XA.A.:X1X1X1X=.$.",
"-.-.>X-.*.#.A.;X(.%.%.-.C.C.%.-.1 3.a.G.s.!.7X8X7X7X7X7X~.8X7X7XV.2 ;X(.;.Z.A.A.A.;.*.:X5XrX5X,X:XA.",
"Z.Z.=.=.A.&.=.Z.A.-.;.-.C.(.;.(.< 4.G.F.F.~.7X~.7X7X7X7X+X8X+X7XD.3 ,X,X;X;.&.[  .:X;X;X4X1X;X=.A.A.",
":X=.A.;X*.O.&.=.Z.C.Z.-.=.-.=.(.; 2.a.p.Y.W.7X8X7X7X~.7X8X~.+X9Xm.* ;.A.A.;.&. .@.A.A.;X:X;X;X=.*.;.",
"1X;X;.*.=.&.@.@.-.(.Z.-.$.%.-.-.o W F.I.s.W.+X+X7X~.~.9X7X7X8X~...+ ,X;X=.&.;.A.A.;X:X:X;X;X;.;.A.Z.",
";X:X;.;.:X:X:X:XZ.;XA.A.%.-.-.=.  m J.a.P.Y.+X8X~.7X7X~.7X7X8X8XV   *.;.:X;X;X;X:X,X,X:X:X;.*.;.-.-.",
":X;X*.,X,X;X,XA.=.;XZ.;X-.=.%.$.#.1 >.G.G.F.+X+X8X8X8X7X7X7XOXe.> (.C.(.;.@.@.;.:X:X,X;X:X;X*.*.=.-.",
"*.*.o.=.;XA.;X&.A.A.A.A.=.+.$.=.A.C.z 4.J.Y.!.+X1.1.Q.8X7X7XS.l ;XZ.-.-.;.*.*.Z.;XZ.;X;.;X:X;X;.-.-.",
"*.;X=.=.;.;.*.;.;XA.;XA.-.#.%.(.:X%.A.z 3.P.J.+Xl z 8X7X7XS.n Z.(.C.-.=.&.@.*.A.*.*.;.;.;.A.;.;.=.%.",
";X&.*.;.&.=.#.=.A.;.,X;X:X-.=.-.=.(.A.=.i T 5.P.j k {.E.W p =.&.$.C.:XC.;.*.Z.Z.;.;X;XA.;X;.*.;X;X<X",
"&.&.=.*.;.;.A.;.;.*.*.Z.;.;X;.*.;.;XA.;.;.:Xq n - 7 n r A.;.;.=.@.%.+.=.:X:X:XC.;.;X>X,X;X;X:XC.:X(.",
"=.=.;.=.;.;.;.;XA.;.=.;X*.;.;.;.;.;XA.;.A.;X;XA.;X;.;X;X;X;X;X;XO.#.#.(.,X,X;.$.;.A.(.,X(.A.C.=.;.-."
};
