/* XPM */
static char *_109001[] = {
/* columns rows colors chars-per-pixel */
"50 50 37 1 ",
"  c #938C8C",
". c #9C9593",
"X c #A09997",
"o c #A49E9C",
"O c #A89F9D",
"+ c #A6A09D",
"@ c #A8A29F",
"# c #A7A3A2",
"$ c #ACA5A5",
"% c #AEA9A6",
"& c #AFAAA8",
"* c #B0A9A7",
"= c #B3ADAC",
"- c #B6B1AF",
"; c #B8B2AF",
": c #B6AFB0",
"> c #B7B1B0",
", c #BBB5B4",
"< c #BDB8B6",
"1 c #BEB7B8",
"2 c #BFB9B8",
"3 c #C0BAB7",
"4 c #C2BCBB",
"5 c #C5C0BF",
"6 c #C8C1BF",
"7 c #C6BFC0",
"8 c #C6C1C1",
"9 c #CAC4C4",
"0 c #CCC8C7",
"q c #CEC9C9",
"w c #D2CDCD",
"e c #D4D0CF",
"r c #D6D2D2",
"t c #D9D5D5",
"y c #DBD6D8",
"u c #DEDBDB",
"i c #E0DDDE",
/* pixels */
">&%-,22---&<3-&,;,,<<<2<242=&:>,;,;<3454<45,;;2,22",
"#=%<,<,,<;353<%=<;;<9<<<<<,4>:,>;2665344258<;,4<,<",
"=,,2--&2<,;,<;#-,<5<94><2<>>:,:2299<954952<<,;<,--",
"-><,#-=23<-<<<-<<<5&-<--:>,,=<22224-34,3<>-&,,,<<<",
",&&,5<>,<<-,3<><555-&<4<,,>,>,22&-<,<<,<4<<48,2252",
"42,-85-,<-%-<->-<-<<55,<8>##&>>>>,<2<,<,<484822<<2",
"<<,,<,,-;<-<--<4<>><55<,2&#&,:>,52<--,<2<<<<52>2,2",
",=%--<2-;<<;<<<<;5<5954584,2>>>,<2<;,,<2<<<,5529-,",
"&&;<-<-=,<<4<<><<34,80947252,4288q8<<,55,52,4,,5<2",
"=286<<&&<<06-=<<182><,5w99777,8rrrr0><,<,25224<42<",
",255<<<><<<3<-,<,44<2><8q9,,722,4902,,<25,,,5422<8",
"&;<<>>55856<<<,42<><<<247>,5,,2,,,2,,,44534,,23<25",
"&5<3%---5544422<<2,,4:488228225,;22,<<5;<<35<>3455",
"-;;;-9<>><-285<>>48831,22,,8528,;22<335<;<<5<>4426",
"53;,--,-542-,5228288484424228082255<<2<;,<<<3<3686",
",;<2<<4-4<<<-<<>2,2282848885,822982,233,,++=<33324",
"<>2<,5q8<<<<1,4<#$,4341479w91327,8,%<3298*=-,3,;,8",
",1>,42<,>=<<3<<>,7834,=,787241:,,242,,,49r935-3413",
"=,-<5;,1-=><=3>2477884:444>=,,,3,:222,,<12q,><281,",
"2>-<;;,<,,<4=*,427444444,4><4,8122q847-<,>22-542<,",
"4:::&:<,<3<41&>848884>=3<4<288q41241111:2trq7,24<2",
"81:&=,,,,34>2q247w78422887:<8q877222773329rtr1>,13",
":413ww23<;><12429r8444884348942<731797374>281:&<31",
"=,,7ty7><4384171,24894747422442,4117733787>>,,,,3<",
",1,=:>1<29qr822444774478882,33>86,4995794,7134432<",
"7113=:1129re822287232472423>-334,,9543131>1==>><,,",
"4q4=:144,7822q477289742741,,-323->884<,34427:,7933",
",85>=>1,222222482180q27rywqww4,=%<887>,3:,13338r7,",
",;2<>44,11174447,:458442809ri9*O$,<,>,,,::,177:17,",
",52<2<,:>2211441>24>2412>*<1>-=*;2<,,11,>=:1qq4144",
";2,<>:1411111414,442284*-<14,<<;><11>>221>,,903,=1",
"<,42>,>7w1,11444443<42,134,41<<4&=7211>422,>171&,7",
"56<,241,22,1>82,45<4<<;442<<,<,<><441419qq4,472499",
"3<<<09272>,22>>13<<54<<-,<2<,,>=3431,4490wr8484133",
"2-,,28824,,2,,->4<,-95<;;=%2,#=&=131,,,,,24749r834",
"2<;->,>4225,<,,-;<3<<<<<84,2,=<$:,1,13,&$$=2788245",
"<<wq8><23;,,2<,;<<--<,---,<2><,9,289121:o .&281,94",
"22<-248q6;5622<5<;3<<<22;=24,198>983>244712474984<",
"02-#55205;<5,;;2<<-<44024<52,1woo842221478128qyw2=",
"<<82,&282,,<<,<<3<,><<<2,5t81,02>08924447218uiyq63",
"11,41>115,22<545<<<<<<2989t941,1470q93=X#778tw7244",
"8144,#&,<22<<<32<--<<<-<44487711271743:X$278987,,2",
"q81>,>&&25<2-;<<2<255<<=487711142777313774q8872444",
"882288972024<<,<>><49<3490147,342113377789q082,111",
"98,905q728254;;-:2,<>,882228117087127&$39q9907>&>4",
">>#1888,2224;%-<8,>,>2982782,=39722,3::473734w4433",
",71>22>,8884<=,28,820872>2953743424,:&,7::14,414<=",
"4:>2&,>222880222,84,88082272491==4871:13374474144w",
">:1<=4441,:1482,4412479274144213*>&28002<9q9988288",
"141:74441344:241,971474744799974%&,4qq<-224q922141"
};
