/* XPM */
static char *images[] = {
/* columns rows colors chars-per-pixel */
"50 50 208 2 ",
"   c #4E2E17",
".  c #582F19",
"X  c #62351D",
"o  c #6D381C",
"O  c #693619",
"+  c #703C1D",
"@  c #5B3423",
"#  c #5D3923",
"$  c #543A2E",
"%  c #5E3D2A",
"&  c #553626",
"*  c #573F32",
"=  c #643723",
"-  c #643A25",
";  c #6B3B25",
":  c #653E29",
">  c #6B3E2A",
",  c #733F24",
"<  c #733F29",
"1  c #613F31",
"2  c #71411F",
"3  c #5F402D",
"4  c #574334",
"5  c #5C4436",
"6  c #5C4639",
"7  c #5F493B",
"8  c #6F4027",
"9  c #65422D",
"0  c #6C432C",
"q  c #68452B",
"w  c #714324",
"e  c #72442C",
"r  c #7B442D",
"t  c #744A2D",
"y  c #7C4A2E",
"u  c #744825",
"i  c #654433",
"p  c #6E4631",
"a  c #634836",
"s  c #6D4934",
"d  c #624539",
"f  c #624B3E",
"g  c #6D4C3D",
"h  c #724632",
"j  c #7B4531",
"k  c #744A33",
"l  c #7B4B33",
"z  c #734E39",
"x  c #7C4E3A",
"c  c #6C513E",
"v  c #755135",
"b  c #7B5135",
"n  c #74513B",
"m  c #7C543B",
"M  c #7D593E",
"N  c #775839",
"B  c #644E41",
"V  c #6A4E41",
"C  c #655143",
"Z  c #6A5243",
"A  c #6B584A",
"S  c #745444",
"D  c #7A5543",
"F  c #755A44",
"G  c #7B5944",
"H  c #755549",
"J  c #795649",
"K  c #745B4B",
"L  c #7C5B4B",
"P  c #765B51",
"I  c #7D5E51",
"U  c #7E644B",
"Y  c #7C6254",
"T  c #7E6859",
"R  c #81472F",
"E  c #804632",
"W  c #844B34",
"Q  c #8A4D36",
"!  c #824F3A",
"~  c #845236",
"^  c #885235",
"/  c #84533C",
"(  c #8B553B",
")  c #835B3F",
"_  c #895A3E",
"`  c #845836",
"'  c #905C3E",
"]  c #89613F",
"[  c #855642",
"{  c #895641",
"}  c #835B45",
"|  c #8B5B45",
" . c #845D4A",
".. c #8B5E4A",
"X. c #915D45",
"o. c #915E4A",
"O. c #805F53",
"+. c #8D6245",
"@. c #84634A",
"#. c #8C624C",
"$. c #8C6A4E",
"%. c #83664A",
"&. c #926142",
"*. c #92644C",
"=. c #94694C",
"-. c #9B6A4B",
";. c #826354",
":. c #8A6450",
">. c #856A54",
",. c #8A6C54",
"<. c #83645A",
"1. c #846B5A",
"2. c #896E59",
"3. c #926650",
"4. c #946C51",
"5. c #9A6A52",
"6. c #8D725C",
"7. c #887155",
"8. c #957056",
"9. c #9B7253",
"0. c #93755C",
"q. c #9A745A",
"w. c #95795D",
"e. c #9B7B5C",
"r. c #A1765A",
"t. c #A27B5C",
"y. c #A37554",
"u. c #867261",
"i. c #8C7563",
"p. c #8D7863",
"a. c #8D7A6B",
"s. c #8C7769",
"d. c #937662",
"f. c #957B63",
"g. c #9C7D63",
"h. c #927D6B",
"j. c #9A7F6C",
"k. c #947F71",
"l. c #886960",
"z. c #A37D62",
"x. c #9F815E",
"c. c #A8825E",
"v. c #A5805D",
"b. c #9C8265",
"n. c #95826B",
"m. c #9D836A",
"M. c #9D896C",
"N. c #938160",
"B. c #948372",
"V. c #9A8472",
"C. c #9D8B71",
"Z. c #A38365",
"A. c #AA8464",
"S. c #A3856A",
"D. c #AB866B",
"F. c #A38A6E",
"G. c #AB8B6B",
"H. c #A98A65",
"J. c #B48D6B",
"K. c #B78C69",
"L. c #B5916E",
"P. c #A48D72",
"I. c #AB8D73",
"U. c #A69175",
"Y. c #AB9275",
"T. c #A3947A",
"R. c #AB957A",
"E. c #AD997D",
"W. c #B29273",
"Q. c #B49874",
"!. c #B2957A",
"~. c #B39A7D",
"^. c #BB9B7D",
"/. c #C09978",
"(. c #AC9B82",
"). c #B39D82",
"_. c #B99E81",
"`. c #B29E89",
"'. c #AFA087",
"]. c #B4A285",
"[. c #BBA385",
"{. c #B5A48A",
"}. c #BAA589",
"|. c #B7A88C",
" X c #BDAA8C",
".X c #B7A986",
"XX c #BDAD92",
"oX c #B9A793",
"OX c #BEB193",
"+X c #C1A486",
"@X c #C0A789",
"#X c #C2AC8D",
"$X c #C4B08F",
"%X c #C1AE91",
"&X c #C4B294",
"*X c #C9B595",
"=X c #C9B996",
"-X c #C5B698",
";X c #CAB69A",
":X c #C4B99A",
">X c #CBBC9B",
",X c #C5B995",
"<X c #D0BD9F",
"1X c #CBBCA0",
"2X c #CEC1A1",
"3X c #D2C4A4",
"4X c #D9CCAD",
"5X c #D4C8A9",
/* pixels */
"S D I ;. .} ;.<.;.I <.<.O.H S.oXH K >.6.U 6.Y U A C A P T 1.>.U %.7.E.`.3.*.o...o.| ....| |  . . . .",
"H I <.<.L }  .<.Y ;.O.<.P V V.oXV Y 6.>.;.b.0.>.1.A C P A p.6.7.>.6.].[...#.o...o. ...o....... ...| ",
"J O.<.;. .[  .;.;.;.;.<.<.H k.&XY.7.2.2.2.0.F.f.2.Y C A K 2.0.f.0.m.}.).} #...#.#...o.o.o.3.#...:...",
"O.;.;.<.....:.<.<.<.<.l.l.P s.;X#XP.f.f.2.2.2.2.Y P A T 6.6.b.b.U.,.).!...:.*.o.#.o.#.O.#.#. . .:.O.",
"L J O. .D D D O.O. .I Y Y V f.;XF F 6.b.0.F d.1.Y H Z Y P.).E.w.&XN..X!.D ..#.#... .#.:.:.#. .L  .D ",
"E.(.{.`.`.`.(.`.`.oX|.oX XoX:X3XOX.X.X X#X}. X%XXXXXXXXX:X>X>X&X>X*X>X&X.X{.}.{.`.`.oXXX X{.XX{.(.(.",
"b.I.~.!.oX1Xm.2.6.d.f.g.S.j.S.j.f.m.e.e.g.z.t.q.}.;Xg.r.q.0.g.8.8.q.8.q.z.q.q.q.z.z.z.j.XXT.T a.V.h.",
"-.q.G.4.D.oX .| [ [  . . . ...o.[ [ [ { { { | ! z.~.j { { m [ / [ { { { { { ! ! ( { { l ).0.a n J H ",
"*.t.G.D.^.XX:.|  .| .. ...#.#.*.#.#.......| o.{ D.).! | { ..| [ | | | | | | | | | | | ) `.P.L ;. .L ",
"G.=.=.y.R.%X,.| ..*.*...#.3.3.*.*.| | #.....*.| I._./ ..{ } | | o...| *.| [ [ | | | | / [.P.D U L @.",
"q.t.| ~ S.%X#.| | | | | | X.&.X.| ( | { | | ..| G.@XW { [ [ x x ! ! ! ( / ! ! ! / / / k ].I.z D J D ",
"F.U.P.F.].:XP.D.z.g.g.z.g.Z.g.w.g.b.g.z.S.S.z.S.@X>XS.S.j.m.S.D.S.S.z.z.Z.g.e.g.e.w.0.0.&X}.i.6.h.h.",
"(.R.(.(.(.(.`.`.{.{.|.XXXX|.2X2X&X*X%X#X#X#X#X+X+X/.+X+X[.+X+X+X+X#X3X5X&X$X#X X}.}.@X%X.X X}.}.[.].",
"g g V z g S H D J H D H H g Y.[.t W E W W E R E E R , r < r < < j r _.W.z / m x m x m M G } G D G D ",
"S S S H J H H H J L L ;.;.H E. Xe / Q W Q W W W W W E W E E R < W E _.Y.x ) } ) / ) [  .G G J N D J ",
"S S H H H H H J J J L L L S E.#Xe ~ ^ W W R R R R E E E E < E W Q y [.I.x } } / / M G L L G G S S S ",
"S S S H H H I I H L L I L H `.*Xe ~ W W W W ( W R R r j E j E W W y +XP.S J J { / / G L K H L J S S ",
"S V n S S g S D H D L F L L }.1X$.[ b b y / ( y l W j r j j j j y 8 +XP.a g z z k k z Z c Z S c c g ",
"XX&XXXoX{.{.oX%X&XXX%X-X>X>X5X4X3X>X&X*X&X>X*X*X*X$X*X#X}.@X}.}.#X].>X>X{.].{.}.`._.}.|.'.|.].`.[.].",
"0.g.g.g.E.3XI.I.F.S.S.S.I.F.!._.D.W.G.G.J.A.G.H.@X4XY.L.^.Q.W.W.^.^.Y.W.~.^.R.Y.!.I.I.D.%XXXf.d.p.i.",
"j x j > z.1X[ | ......{ | ..3.5.o.( ( ( ^ ( ' R v.*X' -.K.y.-.-.-.=.r.K.A.+.) +.X.( ( l ~.n.5 d d d ",
"z x D h U.-XO.o.*.-.*.:.#.$.,.3.3.&.' ' &.' ' ` H.,XJ.] t.) =.y.&.9.A.q.=.+._ _ | { X.( R.C.B H g Z ",
"x [ D < f.XX..5.5.3.5.#.#.$.,.=.=.&.+.] ] ' &.` H..XQ.K.] L.c.y.9.y.=.=.=.&.+.=._ | _ / !.V.V S g V ",
"1 h > @ m.&X} o.*.X.X.o.| *.&.o.' Q ^ W ^ ( ` y G.OXH.J.t.+.N t.+.9.+.&.#.$.#._ ( X.| / ~.U.* d d d ",
"l.l.d.2.(.;Xq.e.Z.Z.S.H.F.F.Z.G.F.Z.G.Z.H.H.Z.e. X2XQ.Y.~.Z.7.F.F.Z.F.m.S.b.S.M.F.q.j.M. X{.i.d.1.2.",
"@X+X X X[.}. X>X=X#X X,X=X&X5X4X&X*X&X;X&X X*X>X$X@X@X[.#X$X#X[.`.}.1X>X&X$X#X#X&X&X#X%X X}.{.].}.}.",
":.#.#.@.$.4.#.4.Z.9.H.e.4.9. X].k / m k k k k z k y t k y t l l k p !.I.k / / / ( / b l [ / k s 0 0 ",
"..5.5.=.9.Z.Z.=.+.c.J.+./.L.#XY.0 / m l x x l l b l l l y y l l l e ~.Y.h / ~ ~ W l l l ~ x l k p 0 ",
"+.4.) +.9.t.A.9.v.c.L.$.A.Z.>XY.k m n z z z k z k l k l t y t t k 9 I.Y.h ! W y l y y k l t k e 0 p ",
"*.=.5.$.e.r.t.v.c.J.H.=.N 9.>XY.0 ! l l l k k k k y l l l y y r r 8 G.~.k ~ l l x l l y l r l e 0 0 ",
"$.} %.e.b.e.$.e.b.W.G.Q.e.e.&XR.0 x s 0 p 0 p 0 e l e e e e e k k 0 Y.I.; j y l r r e > 0 0 e > - : ",
").~.~.].]..X X X:X,X&X=X$X$X3X2X#X%X%X X#XoX X X$X$X#X#X$X$X#X*X=X&X2X>X~.[. X X[.[.).~.R.R.~.!.T.P.",
"w.g.b.q.(.|.h.h.B.k.a.u.s.u.u.u.a.n.n.a.s.s.a.u.oX:XF.S.x.H.Z.Z.v.Z.Z.F.U.Y.G.U.U.F.M.g.%X).f.j.f.6.",
"h 0 h ; g.T.1 6 f B B 7 6 B B f f 6 6 7 6 6 B * C.(.0 ; ; O o O o , < , ; > ; q - - =   f.w.> h q ; ",
"k k l h U.U.a B B B B C C C C C f Z C C C C C 5 P.Y.w r u w w 2 e t r e t e r h q s q @ f.0.0 k k 0 ",
"k k l > U.T.Z C B B B B B f C 6 * B C B B 6 B 5 C.E.e e u 2 2 2 w u r e t p 0 q 0 0 q # f.0.e n p 0 ",
"p h k ; I.T.B B 7 7 f f B B B C A f 7 6 6 4 6 $ B.[.; + 2 + o + ; w w ; 0 ; ; : = X =   w.m.- h : > ",
"G D } G ).{.K Y T Y T 1.1.u.s.u.1.1.T 1.T u.6.1.'.$X%.N ) m b N ) ) m M } @.,.%.%.U U U E. X2.>.;.U ",
"].{.[.`.(.[.].{. X}.|.oX X X:X1X%X#X.X$X,X X X#X X,XOX[.].]. X X X[.$X&XOX&X&X XOX.X{.].E.T.(.E.(.(.",
"n N n k s s s t k s k k k : b.R.t t q v p q q 8 u b t t 0 t b t t : w.P.g F F S n s s i s 9 % 9 % % ",
"0 > > 0 0 0 p 0 0 k p > h = d.S.; e 0 : 9 0 0 e w , w 8 8 8 8 w e X q.f.% i n 9 p i g s s p % 3 : % ",
"p p p 0 0 0 p h 0 0 k > p - f.P.w t 0 0 0 0 0 0 e e e 8 q 0 e 8 e = 0.f.9 q c a % i s 3 a 3 a 9 % % ",
"h k h h p p p h h h h j h ; f.Y.0 k p p 0 0 0 e w e e e 8 0 0 w e X 0.f.% S i 3 i 3 % i 5 9 a i % % ",
": 0 - : - : - - - : : : > @ f.!.9 9 - - - - ; ; 0 0 8 = o 0 8 ; ; - g.F.i s : s % % % % & & # & & & ",
"M.b.N.b.g.P.P.C.P.P.P.T.(.T. X%XF.F.M.P.U.U.P.E.U.Y.Y.F.Y.Y.Y.Y.!.Y.OXOXU.M.C.U.n.P.P.C.f.m.n.m.f.n.",
"n.n.n.n.{.|.P.P.U.R.).U.R.P.P.Y.].E.U.U.U.U.G.M.[. XE.E.Y.Y.Y.U.P.I.U.b.M.M.Y.M.P.M.m.m.[.).f.m.S.F.",
"4 4 * & m.E.l k s D $.q.#.- N $.%.} 0 z v v t t G.F.X ; = = ; = ; : ; = = = = # - - # & m.P.s N / N ",
"f B f * B.(.m #.s D w.@.s s k m v v g m b N t M ~.M.X 8 > > h j < > w 0 : : 0 9 : q i # d.E.} m N v ",
"7 f d $ V.T.k } s s G z q 0 p k p k n z t k k : F.F.X e h > h > > > > > : : : : : : i & d.R. .} @.@.",
"7 6 * $ V.(.m k s p 9 q N z p k p s D  .0 s 0 8 M.U.8 t e h > > > < > > > > > : : : : & f.R.$.$.q.4."
};
